<svg width="24" height="25" viewBox="0 0 24 25" fill="none" xmlns="http://www.w3.org/2000/svg">
<g id="macpaw_logo_paw" clip-path="url(#clip0_1_2141)">
<path id="Vector" d="M12.9834 3.15536C12.4519 3.45527 12.2688 3.92941 12.529 4.37266C12.7893 4.81591 13.2856 4.88646 13.8061 4.59317C14.3266 4.29987 14.6596 3.65375 14.4369 3.27004C14.2141 2.88632 13.5238 2.83559 12.9834 3.15536ZM12.8974 5.46864C12.4431 5.72885 12.2887 6.1302 12.5004 6.51392C12.7122 6.89764 13.1489 6.95498 13.6032 6.69696C14.0576 6.43894 14.3289 5.89428 14.1458 5.56567C13.9628 5.2371 13.3518 5.2062 12.8974 5.46864ZM12.7144 2.67022C12.1806 2.97013 11.6888 2.90396 11.4352 2.44968C11.1815 1.9954 11.369 1.53893 11.8917 1.23019C12.4144 0.921452 13.1202 0.958956 13.343 1.34706C13.5657 1.7352 13.2459 2.36151 12.7144 2.67022ZM10.6566 1.58744C10.2022 1.84987 9.77435 1.78154 9.5538 1.40443C9.33326 1.02732 9.49646 0.619321 9.9508 0.359113C10.4051 0.0989037 11.0161 0.125379 11.1991 0.456178C11.3822 0.786945 11.1175 1.3272 10.6566 1.58744Z" fill="black"/>
<path id="Vector_2" d="M12.0064 22.5863C9.57633 22.5862 7.22145 21.7435 5.34309 20.202C3.46473 18.6604 2.17916 16.5152 1.70543 14.1321C1.23169 11.749 1.59912 9.27532 2.74514 7.13271C3.89122 4.99003 5.74483 3.31106 7.99011 2.3819C8.60826 2.12535 9.29608 2.09027 9.93713 2.28262C10.5782 2.47496 11.1331 2.88291 11.5079 3.4374C11.8826 3.99189 12.0541 4.65884 11.9934 5.3253C11.9328 5.99177 11.6436 6.61678 11.1749 7.09449C10.8951 7.36451 10.5704 7.58389 10.2155 7.74283C9.99495 7.85751 9.75013 7.96335 9.5362 8.09124C8.87283 8.49868 8.3212 9.06469 7.93097 9.73831C7.54074 10.4119 7.32415 11.172 7.3007 11.9502C7.27726 12.7283 7.4477 13.5001 7.79667 14.196C8.14564 14.8919 8.6622 15.4901 9.29983 15.9367C10.2625 16.611 11.4431 16.8999 12.6084 16.7461C13.7737 16.5924 14.8389 16.0073 15.5938 15.1064C16.0938 14.5097 16.4375 13.798 16.594 13.0354C16.6513 12.7245 16.6602 12.4157 16.6888 12.0871C16.6973 11.7683 16.75 11.4521 16.8454 11.1477C17.0693 10.4989 17.5157 9.95027 18.1056 9.5992C18.6955 9.24815 19.3906 9.11731 20.0678 9.22989C20.7449 9.34246 21.3603 9.69118 21.8049 10.2142C22.2494 10.7372 22.4943 11.4008 22.4961 12.0871C22.4937 14.8691 21.3881 17.5367 19.4218 19.5047C17.4553 21.4729 14.7887 22.581 12.0064 22.5863Z" fill="black"/>
</g>
<defs>
<clipPath id="clip0_1_2141">
<rect width="24" height="24" fill="white" transform="translate(0 0.0898438)"/>
</clipPath>
</defs>
</svg>
