<svg width="64" height="65" viewBox="0 0 64 65" fill="none" xmlns="http://www.w3.org/2000/svg">
<g id="business.svg">
<path id="Vector" fill-rule="evenodd" clip-rule="evenodd" d="M25.143 15.6661H38.857C38.857 14.7567 38.4957 13.8845 37.8527 13.2415C37.2096 12.5984 36.3374 12.2371 35.428 12.2371H28.571C27.6617 12.2374 26.7898 12.5988 26.147 13.2418C25.5041 13.8849 25.143 14.7569 25.143 15.6661ZM41.143 15.6661H53.714C54.9263 15.6661 56.0889 16.1477 56.9462 17.005C57.8034 17.8622 58.285 19.0248 58.285 20.2371V49.9522C58.285 51.1645 57.8034 52.3271 56.9462 53.1843C56.0889 54.0416 54.9263 54.5232 53.714 54.5232H10.285C9.07268 54.5232 7.91003 54.0416 7.0528 53.1843C6.19558 52.3271 5.71399 51.1645 5.71399 49.9522V20.2371C5.71399 18.7311 6.44299 17.3951 7.56699 16.5621C8.35303 15.9789 9.3062 15.6647 10.285 15.6661H22.857C22.857 14.1507 23.459 12.6973 24.5306 11.6257C25.6022 10.5542 27.0555 9.95215 28.571 9.95215H35.428C36.1784 9.95202 36.9216 10.0997 37.6149 10.3868C38.3083 10.6739 38.9383 11.0948 39.469 11.6254C39.9997 12.156 40.4207 12.7859 40.7079 13.4793C40.9952 14.1726 41.143 14.9157 41.143 15.6661ZM7.99999 37.3811V49.9511C7.99999 50.5573 8.2407 51.1386 8.66919 51.5672C9.09768 51.9959 9.67888 52.2369 10.285 52.2372H53.714C54.3201 52.2372 54.9014 51.9964 55.3301 51.568C55.7588 51.1395 55.9997 50.5583 56 49.9522V37.3811C55.0115 38.1244 53.8077 38.5253 52.571 38.5231H50.286C50.2706 39.4223 49.9027 40.2794 49.2614 40.9099C48.6201 41.5403 47.7568 41.8936 46.8575 41.8936C45.9582 41.8936 45.0949 41.5403 44.4536 40.9099C43.8123 40.2794 43.4443 39.4223 43.429 38.5231H20.57C20.5546 39.4223 20.1867 40.2794 19.5454 40.9099C18.9041 41.5403 18.0408 41.8936 17.1415 41.8936C16.2422 41.8936 15.3789 41.5403 14.7376 40.9099C14.0963 40.2794 13.7283 39.4223 13.713 38.5231H11.427C10.1909 38.5249 8.98793 38.124 7.99999 37.3811ZM52.571 36.2372H50.286V35.0951C50.2706 34.196 49.9027 33.3389 49.2614 32.7084C48.6201 32.078 47.7568 31.7247 46.8575 31.7247C45.9582 31.7247 45.0949 32.078 44.4536 32.7084C43.8123 33.3389 43.4443 34.196 43.429 35.0951V36.2372H20.57V35.0951C20.5778 34.64 20.4948 34.1878 20.326 33.7651C20.1572 33.3423 19.9059 32.9573 19.5868 32.6327C19.2676 32.3081 18.8871 32.0502 18.4672 31.8742C18.0474 31.6982 17.5967 31.6076 17.1415 31.6076C16.6863 31.6076 16.2356 31.6982 15.8158 31.8742C15.3959 32.0502 15.0153 32.3081 14.6962 32.6327C14.3771 32.9573 14.1258 33.3423 13.957 33.7651C13.7882 34.1878 13.7052 34.64 13.713 35.0951V36.2372H11.427C10.5181 36.2366 9.64657 35.8753 9.00397 35.2325C8.36136 34.5897 8.00025 33.7181 7.99999 32.8091V20.2371C7.99973 19.937 8.05865 19.6398 8.17339 19.3624C8.28813 19.0851 8.45643 18.8331 8.66866 18.6208C8.8809 18.4086 9.1329 18.2403 9.41025 18.1255C9.68759 18.0108 9.98484 17.9519 10.285 17.9521H53.714C54.3201 17.9521 54.9014 18.1929 55.3301 18.6213C55.7588 19.0498 55.9997 19.631 56 20.2371V32.8361C55.9926 33.7407 55.6281 34.6057 54.9858 35.2427C54.3435 35.8798 53.4756 36.2372 52.571 36.2372ZM18.285 38.5231V35.0951C18.2762 34.798 18.152 34.5159 17.9387 34.3089C17.7254 34.1018 17.4398 33.986 17.1425 33.986C16.8452 33.986 16.5596 34.1018 16.3463 34.3089C16.133 34.5159 16.0088 34.798 16 35.0951V38.5231C16.0088 38.8203 16.133 39.1023 16.3463 39.3094C16.5596 39.5165 16.8452 39.6323 17.1425 39.6323C17.4398 39.6323 17.7254 39.5165 17.9387 39.3094C18.152 39.1023 18.2762 38.8203 18.285 38.5231ZM48 38.5231V35.0951C48 34.792 47.8796 34.5013 47.6652 34.2869C47.4509 34.0726 47.1601 33.9522 46.857 33.9522C46.5538 33.9522 46.2631 34.0726 46.0488 34.2869C45.8344 34.5013 45.714 34.792 45.714 35.0951V38.5231C45.714 38.8263 45.8344 39.117 46.0488 39.3314C46.2631 39.5457 46.5538 39.6661 46.857 39.6661C47.1601 39.6661 47.4509 39.5457 47.6652 39.3314C47.8796 39.117 48 38.8263 48 38.5231Z" fill="black"/>
</g>
</svg>
