<svg width="64" height="65" viewBox="0 0 64 65" fill="none" xmlns="http://www.w3.org/2000/svg">
<g id="education.svg">
<path id="Vector" fill-rule="evenodd" clip-rule="evenodd" d="M31.726 15.7112L31.402 15.6172L31.079 15.7142L2.42599 24.3242C0.213994 24.9892 0.270994 28.1402 2.50599 28.7242L11.428 31.0562V41.9942C11.428 43.0842 12.005 44.0922 12.944 44.6442C17.6754 47.4263 22.9586 49.1387 28.4224 49.6611C33.8862 50.1835 39.3981 49.5033 44.571 47.6682V49.9522C44.571 50.0162 44.576 50.0802 44.586 50.1422C44.09 50.3152 43.6403 50.5998 43.2717 50.974C42.9031 51.3483 42.6253 51.8022 42.4599 52.3008C42.2945 52.7994 42.2458 53.3293 42.3176 53.8497C42.3894 54.3701 42.5797 54.867 42.874 55.3022L40.795 61.3502C40.7046 61.6134 40.6783 61.8944 40.7183 62.1698C40.7584 62.4453 40.8637 62.7071 41.0254 62.9337C41.187 63.1602 41.4005 63.3449 41.6479 63.4723C41.8954 63.5997 42.1697 63.6662 42.448 63.6662H48.978C50.178 63.6662 51.022 62.4852 50.632 61.3502L48.552 55.3032C48.8466 54.868 49.0373 54.3709 49.1093 53.8502C49.1813 53.3296 49.1327 52.7994 48.9673 52.3006C48.8019 51.8017 48.524 51.3475 48.1551 50.9731C47.7863 50.5987 47.3363 50.3141 46.84 50.1412C46.85 50.0802 46.856 50.0162 46.856 49.9512V46.7722C48.2983 46.1515 49.7004 45.4411 51.054 44.6452C51.5159 44.3737 51.8988 43.9863 52.1649 43.5214C52.431 43.0564 52.571 42.5299 52.571 41.9942V30.9382L61.331 28.7292C63.592 28.1592 63.649 24.9672 61.409 24.3172L31.726 15.7112ZM50.285 31.5142L46.856 32.3792V44.2682C47.8945 43.7864 48.9091 43.2544 49.896 42.6742C50.0144 42.6045 50.1125 42.5051 50.1807 42.3858C50.2489 42.2666 50.2849 42.1316 50.285 41.9942V31.5142ZM43.798 30.7922L33.523 27.1602C33.2385 27.0643 32.9277 27.0841 32.6577 27.2155C32.3877 27.3469 32.1803 27.5792 32.0802 27.8622C31.9801 28.1453 31.9954 28.4564 32.1228 28.7282C32.2502 29.0001 32.4794 29.211 32.761 29.3152L39.795 31.8012L31.413 33.9152L3.08299 26.5132L31.413 18.0012L60.773 26.5132L43.798 30.7922ZM43.688 33.1772L44.571 33.4902V45.2332C39.6253 47.1172 34.3194 47.8653 29.0457 47.4224C23.7719 46.9794 18.6651 45.3567 14.103 42.6742C13.9844 42.6046 13.8861 42.5052 13.8177 42.386C13.7493 42.2667 13.7132 42.1317 13.713 41.9942V31.6532L31.12 36.1992L31.404 36.2742L31.688 36.2022L43.688 33.1772ZM44.571 53.3802C44.571 54.0092 45.078 54.5182 45.705 54.5232H45.722C45.9477 54.5216 46.1679 54.4532 46.3548 54.3267C46.5417 54.2001 46.687 54.0211 46.7723 53.8121C46.8576 53.6031 46.879 53.3735 46.834 53.1523C46.789 52.9311 46.6796 52.7282 46.5194 52.5692C46.3592 52.4101 46.1556 52.3021 45.9341 52.2586C45.7126 52.2151 45.4831 52.2382 45.2748 52.325C45.0664 52.4117 44.8883 52.5582 44.7631 52.746C44.6378 52.9338 44.571 53.1545 44.571 53.3802ZM44.773 56.8092H46.654L48.225 61.3802H43.202L44.773 56.8092Z" fill="black"/>
</g>
</svg>
