<svg width="74" height="57" viewBox="0 0 74 57" fill="none" xmlns="http://www.w3.org/2000/svg">
<g id="en.svg" clip-path="url(#clip0_1_1288)">
<g id="Group">
<g id="Group_2">
<path id="Vector" fill-rule="evenodd" clip-rule="evenodd" d="M0 0.810547H105.451V5.07982H0V0.810547ZM0 9.34909H105.451V13.6184H0V9.34909ZM0 17.8876H105.451V22.1569H0V17.8876ZM0 26.4262H105.451V30.6955H0V26.4262ZM0 34.9647H105.451V39.234H0V34.9647ZM0 43.5033H105.451V47.7725H0V43.5033ZM0 52.0418H105.451V56.3111H0V52.0418Z" fill="#BD3D44"/>
<path id="Vector_2" fill-rule="evenodd" clip-rule="evenodd" d="M0 5.08008H105.451V9.34935H0V5.08008ZM0 13.6186H105.451V17.8879H0V13.6186ZM0 22.1572H105.451V26.4264H0V22.1572ZM0 30.6957H105.451V34.965H0V30.6957ZM0 39.2343H105.451V43.5035H0V39.2343ZM0 47.7728H105.451V52.0421H0V47.7728Z" fill="white"/>
</g>
<path id="Vector_3" fill-rule="evenodd" clip-rule="evenodd" d="M0 0.810547H42.18V30.6949H0V0.810547Z" fill="#192F5D"/>
<g id="Group_3">
<path id="Vector_4" fill-rule="evenodd" clip-rule="evenodd" d="M3.51504 2.08984L3.89877 3.27095H5.1408L4.13595 4.00102L4.51979 5.18213L3.51493 4.45217L2.5103 5.18213L2.89403 4.00102L1.88928 3.27095H3.1312L3.51504 2.08984ZM10.545 2.08984L10.9288 3.27095H12.1709L11.166 4.00102L11.5499 5.18213L10.545 4.45217L9.54037 5.18213L9.9241 4.00102L8.91935 3.27095H10.1613L10.545 2.08984ZM17.5753 2.08984L17.959 3.27095H19.2011L18.1962 4.00102L18.58 5.18213L17.5753 4.45217L16.5706 5.18213L16.9543 4.00102L15.9495 3.27095H17.1916L17.5753 2.08984ZM24.6052 2.08984L24.9889 3.27095H26.2308L25.2261 4.00102L25.6098 5.18213L24.6052 4.45217L23.6003 5.18213L23.9841 4.00102L22.9793 3.27095H24.2213L24.6052 2.08984ZM31.6353 2.08984L32.0191 3.27095H33.2611L32.2562 4.00102L32.6401 5.18213L31.6352 4.45217L30.6306 5.18213L31.0143 4.00102L30.0096 3.27095H31.2515L31.6353 2.08984ZM38.6655 2.08984L39.0492 3.27095H40.2913L39.2864 4.00102L39.6703 5.18213L38.6655 4.45217L37.6607 5.18213L38.0446 4.00102L37.0398 3.27095H38.2818L38.6655 2.08984ZM7.03019 5.07839L7.41392 6.2595H8.65595L7.65109 6.98945L8.03504 8.17067L7.03019 7.44072L6.02544 8.17067L6.40917 6.98945L5.40443 6.2595H6.64646L7.03019 5.07839ZM14.06 5.07839L14.4438 6.2595H15.6857L14.6809 6.98945L15.0647 8.17067L14.06 7.44072L13.0552 8.17067L13.439 6.98945L12.4342 6.2595H13.6762L14.06 5.07839ZM21.0902 5.07839L21.474 6.2595H22.716L21.7111 6.98945L22.095 8.17067L21.0901 7.44072L20.0855 8.17067L20.4692 6.98945L19.4645 6.2595H20.7064L21.0902 5.07839ZM28.1204 5.07839L28.5041 6.2595H29.7462L28.7413 6.98945L29.1251 8.17067L28.1204 7.44072L27.1156 8.17067L27.4996 6.98945L26.4948 6.2595H27.7368L28.1204 5.07839ZM35.1503 5.07839L35.534 6.2595H36.7759L35.7712 6.98945L36.1549 8.17067L35.1503 7.44072L34.1454 8.17067L34.5292 6.98945L33.5244 6.2595H34.7664L35.1503 5.07839ZM3.51504 8.06683L3.89877 9.24793H5.1408L4.13595 9.978L4.51979 11.1591L3.51493 10.4292L2.5103 11.1591L2.89403 9.978L1.88928 9.24793H3.1312L3.51504 8.06683ZM10.545 8.06683L10.9288 9.24793H12.1709L11.166 9.978L11.5499 11.1591L10.545 10.4292L9.54037 11.1591L9.9241 9.978L8.91935 9.24793H10.1613L10.545 8.06683ZM17.5753 8.06683L17.959 9.24793H19.2011L18.1962 9.978L18.58 11.1591L17.5753 10.4292L16.5706 11.1591L16.9543 9.978L15.9495 9.24793H17.1916L17.5753 8.06683ZM24.6052 8.06683L24.9889 9.24793H26.2308L25.2261 9.978L25.6098 11.1591L24.6052 10.4292L23.6003 11.1591L23.9841 9.978L22.9793 9.24793H24.2213L24.6052 8.06683ZM31.6353 8.06683L32.0191 9.24793H33.2611L32.2562 9.978L32.6401 11.1591L31.6352 10.4292L30.6306 11.1591L31.0143 9.978L30.0096 9.24793H31.2515L31.6353 8.06683ZM38.6655 8.06683L39.0492 9.24793H40.2913L39.2864 9.978L39.6703 11.1591L38.6655 10.4292L37.6607 11.1591L38.0446 9.978L37.0398 9.24793H38.2818L38.6655 8.06683ZM7.03019 11.0553L7.41392 12.2365H8.65595L7.65109 12.9664L8.03504 14.1477L7.03019 13.4177L6.02544 14.1477L6.40917 12.9664L5.40443 12.2365H6.64646L7.03019 11.0553ZM14.06 11.0553L14.4438 12.2365H15.6857L14.6809 12.9664L15.0647 14.1477L14.06 13.4177L13.0552 14.1477L13.439 12.9664L12.4342 12.2365H13.6762L14.06 11.0553ZM21.0902 11.0553L21.474 12.2365H22.716L21.7111 12.9664L22.095 14.1477L21.0901 13.4177L20.0855 14.1477L20.4692 12.9664L19.4645 12.2365H20.7064L21.0902 11.0553ZM28.1204 11.0553L28.5041 12.2365H29.7462L28.7413 12.9664L29.1251 14.1477L28.1204 13.4177L27.1156 14.1477L27.4995 12.9664L26.4946 12.2365H27.7367L28.1204 11.0553ZM35.1503 11.0553L35.534 12.2365H36.7759L35.7712 12.9664L36.1549 14.1477L35.1503 13.4177L34.1454 14.1477L34.5292 12.9664L33.5244 12.2365H34.7664L35.1503 11.0553ZM3.51504 14.0438L3.89877 15.2249H5.1408L4.13595 15.955L4.51979 17.1361L3.51493 16.4061L2.5103 17.1361L2.89403 15.955L1.88928 15.2249H3.1312L3.51504 14.0438ZM10.545 14.0438L10.9288 15.2249H12.1709L11.166 15.955L11.5499 17.1361L10.545 16.4061L9.54037 17.1361L9.9241 15.955L8.91935 15.2249H10.1613L10.545 14.0438ZM17.5753 14.0438L17.959 15.2249H19.2011L18.1962 15.955L18.58 17.1361L17.5753 16.4061L16.5706 17.1361L16.9543 15.955L15.9495 15.2249H17.1916L17.5753 14.0438ZM24.6052 14.0438L24.9889 15.2249H26.2308L25.2261 15.955L25.6098 17.1361L24.6052 16.4061L23.6003 17.1361L23.9841 15.955L22.9793 15.2249H24.2213L24.6052 14.0438ZM31.6353 14.0438L32.0191 15.2249H33.2611L32.2562 15.955L32.6401 17.1361L31.6352 16.4061L30.6306 17.1361L31.0143 15.955L30.0096 15.2249H31.2515L31.6353 14.0438ZM38.6655 14.0438L39.0492 15.2249H40.2913L39.2864 15.955L39.6703 17.1361L38.6655 16.4061L37.6607 17.1361L38.0446 15.955L37.0398 15.2249H38.2818L38.6655 14.0438ZM7.03019 17.0322L7.41392 18.2135H8.65595L7.65109 18.9434L8.03504 20.1246L7.03019 19.3947L6.02544 20.1246L6.40917 18.9434L5.40443 18.2135H6.64646L7.03019 17.0322ZM14.06 17.0322L14.4438 18.2135H15.6857L14.6809 18.9434L15.0647 20.1246L14.06 19.3947L13.0552 20.1246L13.439 18.9434L12.4342 18.2135H13.6762L14.06 17.0322ZM21.0902 17.0322L21.474 18.2135H22.716L21.7111 18.9434L22.095 20.1246L21.0901 19.3947L20.0855 20.1246L20.4692 18.9434L19.4645 18.2135H20.7064L21.0902 17.0322ZM28.1204 17.0322L28.5041 18.2135H29.7462L28.7413 18.9434L29.1251 20.1246L28.1204 19.3947L27.1156 20.1246L27.4995 18.9434L26.4946 18.2135H27.7367L28.1204 17.0322ZM35.1503 17.0322L35.534 18.2135H36.7759L35.7712 18.9434L36.1549 20.1246L35.1503 19.3947L34.1454 20.1246L34.5292 18.9434L33.5244 18.2135H34.7664L35.1503 17.0322Z" fill="white"/>
<g id="Group_4">
<path id="Vector_5" fill-rule="evenodd" clip-rule="evenodd" d="M3.51504 20.0205L3.89877 21.2016H5.1408L4.13595 21.9317L4.51979 23.1128L3.51493 22.3828L2.5103 23.1128L2.89403 21.9317L1.88928 21.2016H3.1312L3.51504 20.0205ZM10.545 20.0205L10.9288 21.2016H12.1709L11.166 21.9317L11.5499 23.1128L10.545 22.3828L9.54037 23.1128L9.9241 21.9317L8.91935 21.2016H10.1613L10.545 20.0205ZM17.5753 20.0205L17.959 21.2016H19.2011L18.1962 21.9317L18.58 23.1128L17.5753 22.3828L16.5706 23.1128L16.9543 21.9317L15.9495 21.2016H17.1916L17.5753 20.0205ZM24.6052 20.0205L24.9889 21.2016H26.2308L25.2261 21.9317L25.6098 23.1128L24.6052 22.3828L23.6003 23.1128L23.9841 21.9317L22.9793 21.2016H24.2213L24.6052 20.0205ZM31.6353 20.0205L32.0191 21.2016H33.2611L32.2562 21.9317L32.6401 23.1128L31.6352 22.3828L30.6306 23.1128L31.0143 21.9317L30.0096 21.2016H31.2515L31.6353 20.0205ZM38.6655 20.0205L39.0492 21.2016H40.2913L39.2864 21.9317L39.6703 23.1128L38.6655 22.3828L37.6607 23.1128L38.0446 21.9317L37.0398 21.2016H38.2818L38.6655 20.0205ZM7.03019 23.0089L7.41392 24.1902H8.65595L7.65109 24.9201L8.03504 26.1013L7.03019 25.3714L6.02544 26.1013L6.40917 24.9201L5.40443 24.1902H6.64646L7.03019 23.0089ZM14.06 23.0089L14.4438 24.1902H15.6857L14.6809 24.9201L15.0647 26.1013L14.06 25.3714L13.0552 26.1013L13.439 24.9201L12.4342 24.1902H13.6762L14.06 23.0089ZM21.0902 23.0089L21.474 24.1902H22.716L21.7111 24.9201L22.095 26.1013L21.0901 25.3714L20.0855 26.1013L20.4692 24.9201L19.4645 24.1902H20.7064L21.0902 23.0089ZM28.1204 23.0089L28.5041 24.1902H29.7462L28.7413 24.9201L29.1251 26.1013L28.1204 25.3714L27.1156 26.1013L27.4995 24.9201L26.4946 24.1902H27.7367L28.1204 23.0089ZM35.1503 23.0089L35.534 24.1902H36.7759L35.7712 24.9201L36.1549 26.1013L35.1503 25.3714L34.1454 26.1013L34.5292 24.9201L33.5244 24.1902H34.7664L35.1503 23.0089Z" fill="white"/>
</g>
<g id="Group_5">
<path id="Vector_6" fill-rule="evenodd" clip-rule="evenodd" d="M3.51504 25.998L3.89877 27.1792H5.1408L4.13595 27.9092L4.51979 29.0903L3.51493 28.3604L2.5103 29.0903L2.89403 27.9092L1.88928 27.1792H3.1312L3.51504 25.998ZM10.545 25.998L10.9288 27.1792H12.1709L11.166 27.9092L11.5499 29.0903L10.545 28.3604L9.54037 29.0903L9.9241 27.9092L8.91935 27.1792H10.1613L10.545 25.998ZM17.5753 25.998L17.959 27.1792H19.2011L18.1962 27.9092L18.58 29.0903L17.5753 28.3604L16.5706 29.0903L16.9543 27.9092L15.9495 27.1792H17.1916L17.5753 25.998ZM24.6052 25.998L24.9889 27.1792H26.2308L25.2261 27.9092L25.6098 29.0903L24.6052 28.3604L23.6003 29.0903L23.9841 27.9092L22.9793 27.1792H24.2213L24.6052 25.998ZM31.6353 25.998L32.0191 27.1792H33.2611L32.2562 27.9092L32.6401 29.0903L31.6352 28.3604L30.6306 29.0903L31.0143 27.9092L30.0096 27.1792H31.2515L31.6353 25.998ZM38.6655 25.998L39.0492 27.1792H40.2913L39.2864 27.9092L39.6703 29.0903L38.6655 28.3604L37.6607 29.0903L38.0446 27.9092L37.0398 27.1792H38.2818L38.6655 25.998Z" fill="white"/>
</g>
</g>
</g>
</g>
<defs>
<clipPath id="clip0_1_1288">
<rect width="74" height="55.5" fill="white" transform="translate(0 0.810547)"/>
</clipPath>
</defs>
</svg>
