<svg width="74" height="57" viewBox="0 0 74 57" fill="none" xmlns="http://www.w3.org/2000/svg">
<g id="ko.svg" clip-path="url(#clip0_1_1465)">
<g id="Clip path group">
<mask id="mask0_1_1465" style="mask-type:luminance" maskUnits="userSpaceOnUse" x="0" y="0" width="75" height="57">
<g id="a">
<path id="Vector" d="M0 0.810547H74.0004V56.3105H0V0.810547Z" fill="white"/>
</g>
</mask>
<g mask="url(#mask0_1_1465)">
<g id="Group">
<path id="Vector_2" fill-rule="evenodd" clip-rule="evenodd" d="M76.5746 56.3105H-2.57471V0.810547H76.5746V56.3105Z" fill="white"/>
<path id="Vector_3" fill-rule="evenodd" clip-rule="evenodd" d="M37.6878 28.6106C37.6878 35.3462 32.2276 40.8063 25.4922 40.8063C18.7567 40.8063 13.2966 35.3461 13.2966 28.6106C13.2966 21.8751 18.7568 16.415 25.4922 16.415C32.2278 16.415 37.6878 21.8753 37.6878 28.6106Z" fill="white"/>
<path id="Vector_4" fill-rule="evenodd" clip-rule="evenodd" d="M52.9871 29.3186C52.9871 38.1074 45.9375 45.2318 37.241 45.2318C28.5446 45.2318 21.4949 38.1075 21.4949 29.3186C21.4949 20.5297 28.5445 13.4053 37.241 13.4053C45.9376 13.4053 52.9871 20.5298 52.9871 29.3186Z" fill="#C70000"/>
<path id="Vector_5" fill-rule="evenodd" clip-rule="evenodd" d="M5.02856 14.5639L14.0972 4.07422L16.2457 5.93163L7.17713 16.4215L5.02856 14.5639ZM7.99857 17.1316L17.0672 6.64185L19.2156 8.49926L10.147 18.989L7.99857 17.1316Z" fill="black"/>
<path id="Vector_6" fill-rule="evenodd" clip-rule="evenodd" d="M5.02856 14.5639L14.0972 4.07422L16.2457 5.93163L7.17713 16.4215L5.02856 14.5639Z" fill="black"/>
<path id="Vector_7" fill-rule="evenodd" clip-rule="evenodd" d="M5.02856 14.5639L14.0972 4.07422L16.2457 5.93163L7.17713 16.4215L5.02856 14.5639ZM11.0321 19.7541L20.1007 9.26434L22.2492 11.1219L13.1806 21.6116L11.0321 19.7541Z" fill="black"/>
<path id="Vector_8" fill-rule="evenodd" clip-rule="evenodd" d="M5.02856 14.5639L14.0972 4.07422L16.2457 5.93163L7.17713 16.4215L5.02856 14.5639Z" fill="black"/>
<path id="Vector_9" fill-rule="evenodd" clip-rule="evenodd" d="M5.02856 14.5645L14.0972 4.07476L16.2457 5.93217L7.17713 16.422L5.02856 14.5645ZM60.1849 4.07129L69.1822 14.6223L67.0211 16.465L58.0238 5.91417L60.1849 4.07129ZM54.1465 9.22054L63.1438 19.7715L60.9828 21.6143L51.9855 11.0634L54.1465 9.22054Z" fill="black"/>
<path id="Vector_10" fill-rule="evenodd" clip-rule="evenodd" d="M55.6472 15.2962L64.1676 7.94531L65.7546 9.78299L56.6496 17.9691L55.6472 15.2961V15.2962Z" fill="white"/>
<path id="Vector_11" fill-rule="evenodd" clip-rule="evenodd" d="M66.1269 41.1835L57.4099 51.5712L55.2727 49.7935L63.9898 39.4059L66.1269 41.1835ZM57.1976 6.61816L66.1948 17.169L64.0338 19.0119L55.0365 8.46105L57.1976 6.61816ZM69.0804 43.6401L60.3633 54.0278L58.2263 52.2502L66.9433 41.8625L69.0804 43.6401ZM63.1093 38.6734L54.3922 49.0612L52.2551 47.2835L60.9721 36.8958L63.1093 38.6734Z" fill="black"/>
<path id="Vector_12" fill-rule="evenodd" clip-rule="evenodd" d="M21.7239 26.5141C22.2217 30.522 22.9485 34.9881 29.1166 35.4521C31.4285 35.5906 35.9259 34.9021 37.4699 28.6024C39.4956 22.5506 45.5971 20.8107 49.7493 24.0916C52.1035 25.6272 52.7548 28.0661 52.9235 29.8971C52.735 35.7769 49.36 40.867 45.0296 43.1369C40.0509 46.0961 33.1535 46.1579 27.1113 41.6746C24.3884 39.1196 20.5837 34.4098 21.7239 26.5141Z" fill="#3D5897"/>
<path id="Vector_13" fill-rule="evenodd" clip-rule="evenodd" d="M57.6374 41.0293L66.172 48.3636L64.5904 50.2061L55.1428 42.4176L57.6374 41.0293Z" fill="white"/>
<path id="Vector_14" fill-rule="evenodd" clip-rule="evenodd" d="M10.1809 39.5781L19.1782 50.1291L17.0171 51.9719L8.01978 41.421L10.1809 39.5781Z" fill="black"/>
<path id="Vector_15" fill-rule="evenodd" clip-rule="evenodd" d="M8.63062 48.2552L17.1509 40.9043L18.738 42.742L9.63298 50.9281L8.63062 48.2551V48.2552Z" fill="white"/>
<path id="Vector_16" fill-rule="evenodd" clip-rule="evenodd" d="M13.1682 37.0303L22.1656 47.5811L20.0045 49.4239L11.0072 38.873L13.1682 37.0303ZM7.12989 42.1795L16.1272 52.7304L13.9661 54.5731L4.96875 44.0224L7.12989 42.1795Z" fill="black"/>
</g>
</g>
</g>
</g>
<defs>
<clipPath id="clip0_1_1465">
<rect width="74" height="55.5" fill="white" transform="translate(0 0.810547)"/>
</clipPath>
</defs>
</svg>
