<svg width="74" height="57" viewBox="0 0 74 57" fill="none" xmlns="http://www.w3.org/2000/svg">
<g id="pt.svg" clip-path="url(#clip0_1_1382)">
<g id="Group">
<path id="Vector" fill-rule="evenodd" clip-rule="evenodd" d="M0 0.810547H74V56.3105H0V0.810547Z" fill="#229E45"/>
<path id="Vector_2" fill-rule="evenodd" clip-rule="evenodd" d="M37.1626 51.2152L72.0216 28.5909L36.9516 5.90527L1.97839 28.6451L37.1626 51.2151V51.2152Z" fill="#F8E509"/>
<path id="Vector_3" fill-rule="evenodd" clip-rule="evenodd" d="M52.3515 28.5616C52.3515 36.6933 45.749 43.2853 37.6042 43.2853C29.4594 43.2853 22.8569 36.6933 22.8569 28.5616C22.8569 20.4299 29.4596 13.8379 37.6042 13.8379C45.7491 13.8379 52.3516 20.4299 52.3516 28.5616H52.3515Z" fill="#2B49A3"/>
<path id="Vector_4" d="M25.5531 26.826C25.9363 26.826 26.2469 26.5154 26.2469 26.1322C26.2469 25.7491 25.9363 25.4385 25.5531 25.4385C25.17 25.4385 24.8594 25.7491 24.8594 26.1322C24.8594 26.5154 25.17 26.826 25.5531 26.826Z" fill="white"/>
<path id="Vector_5" d="M32.2594 29.948C32.6426 29.948 32.9532 29.6374 32.9532 29.2543C32.9532 28.8711 32.6426 28.5605 32.2594 28.5605C31.8763 28.5605 31.5657 28.8711 31.5657 29.2543C31.5657 29.6374 31.8763 29.948 32.2594 29.948Z" fill="white"/>
<path id="Vector_6" d="M37.6938 31.3357C38.0769 31.3357 38.3875 31.0251 38.3875 30.642C38.3875 30.2588 38.0769 29.9482 37.6938 29.9482C37.3106 29.9482 37 30.2588 37 30.642C37 31.0251 37.3106 31.3357 37.6938 31.3357Z" fill="white"/>
<path id="Vector_7" d="M32.2594 37.4637C32.6426 37.4637 32.9532 37.1531 32.9532 36.7699C32.9532 36.3868 32.6426 36.0762 32.2594 36.0762C31.8763 36.0762 31.5657 36.3868 31.5657 36.7699C31.5657 37.1531 31.8763 37.4637 32.2594 37.4637Z" fill="white"/>
<path id="Vector_8" d="M26.9406 33.1854C27.3237 33.1854 27.6343 32.8747 27.6343 32.4916C27.6343 32.1085 27.3237 31.7979 26.9406 31.7979C26.5574 31.7979 26.2468 32.1085 26.2468 32.4916C26.2468 32.8747 26.5574 33.1854 26.9406 33.1854Z" fill="white"/>
<path id="Vector_9" d="M42.3188 40.0076C42.7019 40.0076 43.0125 39.697 43.0125 39.3139C43.0125 38.9307 42.7019 38.6201 42.3188 38.6201C41.9356 38.6201 41.625 38.9307 41.625 39.3139C41.625 39.697 41.9356 40.0076 42.3188 40.0076Z" fill="white"/>
<path id="Vector_10" d="M42.3187 24.6289C42.638 24.6289 42.8969 24.3701 42.8969 24.0508C42.8969 23.7315 42.638 23.4727 42.3187 23.4727C41.9994 23.4727 41.7406 23.7315 41.7406 24.0508C41.7406 24.3701 41.9994 24.6289 42.3187 24.6289Z" fill="white"/>
<path id="Vector_11" d="M38.0406 36.0762C38.3599 36.0762 38.6188 35.8173 38.6188 35.498C38.6188 35.1788 38.3599 34.9199 38.0406 34.9199C37.7214 34.9199 37.4625 35.1788 37.4625 35.498C37.4625 35.8173 37.7214 36.0762 38.0406 36.0762Z" fill="white"/>
<path id="Vector_12" d="M47.9844 34.3418C48.3037 34.3418 48.5625 34.083 48.5625 33.7637C48.5625 33.4444 48.3037 33.1855 47.9844 33.1855C47.6651 33.1855 47.4062 33.4444 47.4062 33.7637C47.4062 34.083 47.6651 34.3418 47.9844 34.3418Z" fill="white"/>
<path id="Vector_13" d="M39.3125 32.6078C39.504 32.6078 39.6593 32.4525 39.6593 32.2609C39.6593 32.0694 39.504 31.9141 39.3125 31.9141C39.1209 31.9141 38.9656 32.0694 38.9656 32.2609C38.9656 32.4525 39.1209 32.6078 39.3125 32.6078Z" fill="white"/>
<path id="Vector_14" d="M47.7531 36.6547C47.9447 36.6547 48.1 36.4994 48.1 36.3078C48.1 36.1162 47.9447 35.9609 47.7531 35.9609C47.5616 35.9609 47.4062 36.1162 47.4062 36.3078C47.4062 36.4994 47.5616 36.6547 47.7531 36.6547Z" fill="white"/>
<path id="Vector_15" d="M45.0937 38.5043C45.2853 38.5043 45.4406 38.349 45.4406 38.1574C45.4406 37.9658 45.2853 37.8105 45.0937 37.8105C44.9021 37.8105 44.7468 37.9658 44.7468 38.1574C44.7468 38.349 44.9021 38.5043 45.0937 38.5043Z" fill="white"/>
<path id="Vector_16" d="M45.325 40.0072C45.5166 40.0072 45.6719 39.8519 45.6719 39.6604C45.6719 39.4688 45.5166 39.3135 45.325 39.3135C45.1335 39.3135 44.9781 39.4688 44.9781 39.6604C44.9781 39.8519 45.1335 40.0072 45.325 40.0072Z" fill="white"/>
<path id="Vector_17" d="M49.8344 34.1109C49.9621 34.1109 50.0656 34.0074 50.0656 33.8797C50.0656 33.752 49.9621 33.6484 49.8344 33.6484C49.7067 33.6484 49.6031 33.752 49.6031 33.8797C49.6031 34.0074 49.7067 34.1109 49.8344 34.1109Z" fill="white"/>
<path id="Vector_18" d="M48.2156 35.3824C48.3433 35.3824 48.4469 35.2789 48.4469 35.1512C48.4469 35.0235 48.3433 34.9199 48.2156 34.9199C48.0879 34.9199 47.9844 35.0235 47.9844 35.1512C47.9844 35.2789 48.0879 35.3824 48.2156 35.3824Z" fill="white"/>
<path id="Vector_19" d="M46.5969 37.0016C46.7246 37.0016 46.8281 36.898 46.8281 36.7703C46.8281 36.6426 46.7246 36.5391 46.5969 36.5391C46.4691 36.5391 46.3656 36.6426 46.3656 36.7703C46.3656 36.898 46.4691 37.0016 46.5969 37.0016Z" fill="white"/>
<path id="Vector_20" d="M45.325 36.8854C45.4527 36.8854 45.5563 36.7818 45.5563 36.6541C45.5563 36.5264 45.4527 36.4229 45.325 36.4229C45.1973 36.4229 45.0938 36.5264 45.0938 36.6541C45.0938 36.7818 45.1973 36.8854 45.325 36.8854Z" fill="white"/>
<path id="Vector_21" d="M43.1281 36.8854C43.2558 36.8854 43.3594 36.7818 43.3594 36.6541C43.3594 36.5264 43.2558 36.4229 43.1281 36.4229C43.0004 36.4229 42.8969 36.5264 42.8969 36.6541C42.8969 36.7818 43.0004 36.8854 43.1281 36.8854Z" fill="white"/>
<path id="Vector_22" d="M40.9312 36.8854C41.0589 36.8854 41.1625 36.7818 41.1625 36.6541C41.1625 36.5264 41.0589 36.4229 40.9312 36.4229C40.8035 36.4229 40.7 36.5264 40.7 36.6541C40.7 36.7818 40.8035 36.8854 40.9312 36.8854Z" fill="white"/>
<path id="Vector_23" d="M37.925 40.2389C38.0527 40.2389 38.1562 40.1353 38.1562 40.0076C38.1562 39.8799 38.0527 39.7764 37.925 39.7764C37.7973 39.7764 37.6937 39.8799 37.6937 40.0076C37.6937 40.1353 37.7973 40.2389 37.925 40.2389Z" fill="white"/>
<path id="Vector_24" d="M37.4625 33.7633C37.5902 33.7633 37.6937 33.6597 37.6937 33.532C37.6937 33.4043 37.5902 33.3008 37.4625 33.3008C37.3347 33.3008 37.2312 33.4043 37.2312 33.532C37.2312 33.6597 37.3347 33.7633 37.4625 33.7633Z" fill="white"/>
<path id="Vector_25" d="M28.5594 31.7984C28.6871 31.7984 28.7906 31.6949 28.7906 31.5672C28.7906 31.4395 28.6871 31.3359 28.5594 31.3359C28.4317 31.3359 28.3281 31.4395 28.3281 31.5672C28.3281 31.6949 28.4317 31.7984 28.5594 31.7984Z" fill="white"/>
<path id="Vector_26" d="M36.4218 32.6078C36.6134 32.6078 36.7687 32.4525 36.7687 32.2609C36.7687 32.0694 36.6134 31.9141 36.4218 31.9141C36.2303 31.9141 36.075 32.0694 36.075 32.2609C36.075 32.4525 36.2303 32.6078 36.4218 32.6078Z" fill="white"/>
<path id="Vector_27" d="M29.9469 33.8793C30.1384 33.8793 30.2937 33.724 30.2937 33.5324C30.2937 33.3408 30.1384 33.1855 29.9469 33.1855C29.7553 33.1855 29.6 33.3408 29.6 33.5324C29.6 33.724 29.7553 33.8793 29.9469 33.8793Z" fill="white"/>
<path id="Vector_28" d="M29.2531 35.7289C29.4447 35.7289 29.6 35.5736 29.6 35.382C29.6 35.1905 29.4447 35.0352 29.2531 35.0352C29.0616 35.0352 28.9062 35.1905 28.9062 35.382C28.9062 35.5736 29.0616 35.7289 29.2531 35.7289Z" fill="white"/>
<path id="Vector_29" d="M24.975 33.8793C25.1666 33.8793 25.3219 33.724 25.3219 33.5324C25.3219 33.3408 25.1666 33.1855 24.975 33.1855C24.7835 33.1855 24.6282 33.3408 24.6282 33.5324C24.6282 33.724 24.7835 33.8793 24.975 33.8793Z" fill="white"/>
<path id="Vector_30" d="M41.336 28.5604C41.5595 28.5604 41.7406 28.3792 41.7406 28.1557C41.7406 27.9322 41.5595 27.751 41.336 27.751C41.1125 27.751 40.9313 27.9322 40.9313 28.1557C40.9313 28.3792 41.1125 28.5604 41.336 28.5604Z" fill="white"/>
<path id="Vector_31" fill-rule="evenodd" clip-rule="evenodd" d="M52.0488 31.5704C44.2161 24.6898 35.4843 21.165 24.4514 21.8903C24.0557 22.6485 23.7391 23.4423 23.472 24.3014C36.545 23.0543 46.1271 28.842 51.3805 33.8583C51.6049 33.2704 51.8946 32.3839 52.0488 31.5704Z" fill="white"/>
</g>
</g>
<defs>
<clipPath id="clip0_1_1382">
<rect width="74" height="55.5" fill="white" transform="translate(0 0.810547)"/>
</clipPath>
</defs>
</svg>
