<svg width="74" height="57" viewBox="0 0 74 57" fill="none" xmlns="http://www.w3.org/2000/svg">
<g id="zh.svg" clip-path="url(#clip0_1_1437)">
<path id="Vector" d="M74 0.810547H0V56.3105H74V0.810547Z" fill="#DE2910"/>
<g id="Group">
<path id="Vector_2" d="M17.2667 15.1485L15.4167 9.44434L13.5667 15.1485H7.5542L12.3334 18.6943L10.4834 24.5527L15.4167 21.0068L20.35 24.5527L18.5 18.6943L23.2792 15.1485H17.2667Z" fill="#FFDE00"/>
<path id="Vector_3" d="M28.8292 10.3691L29.9084 12.2191L30.0626 10.2149L32.0667 9.75241L30.2167 8.82741L30.3709 6.82324L28.9834 8.36491L27.1334 7.59408L28.2126 9.28991L26.9792 10.8316L28.8292 10.3691Z" fill="#FFDE00"/>
<path id="Vector_4" d="M34.0708 15.7648L34.3792 17.769L35.3042 15.919L37.3083 16.2273L35.9208 14.8398L36.8458 12.9898L34.9958 13.9148L33.6083 12.5273L33.9167 14.5315L32.0667 15.4565L34.0708 15.7648Z" fill="#FFDE00"/>
<path id="Vector_5" d="M35.9208 23.6273L37.4625 22.3939H35.4583L34.6875 20.5439L34.225 22.5481H32.2208L33.9167 23.6273L33.3 25.6314L34.8417 24.3981L36.5375 25.4773L35.9208 23.6273Z" fill="#FFDE00"/>
<path id="Vector_6" d="M30.2167 28.2522V26.248L28.9834 27.7897L27.1334 27.173L28.2126 28.8689L26.9792 30.4105L28.9834 29.7939L30.0626 31.4897V29.4855L32.0667 29.023L30.2167 28.2522Z" fill="#FFDE00"/>
</g>
</g>
<defs>
<clipPath id="clip0_1_1437">
<rect width="74" height="55.5" fill="white" transform="translate(0 0.810547)"/>
</clipPath>
</defs>
</svg>
