<svg width="146" height="65" viewBox="0 0 146 65" fill="none" xmlns="http://www.w3.org/2000/svg">
<g clip-path="url(#clip0_1_177)">
<g clip-path="url(#clip1_1_177)">
<path d="M1.27415 32.4414C1.27415 37.9481 5.29259 42.2642 10.9482 42.2642C15.7852 42.2642 18.4641 39.1388 18.4641 39.1388L16.9758 37.204C16.9758 37.204 14.7433 39.7341 10.9482 39.7341C7.07856 39.7341 4.02752 36.4598 4.02752 32.367C4.02752 28.1253 7.00414 25.2975 10.8737 25.2975C12.8085 25.2975 15.4875 26.1161 15.4875 27.6788V28.7206H17.9432V26.8602C17.9432 23.8836 13.3294 22.8418 10.7993 22.8418C5.367 22.9162 1.27415 27.0091 1.27415 32.4414ZM21.5896 37.1295C21.5896 40.7015 23.1523 42.2642 26.2777 42.2642C28.9567 42.2642 30.7426 40.4782 31.338 39.2132H31.4124C31.4124 39.2132 31.4124 39.5853 31.4124 39.9573V40.4782C31.4124 41.4456 32.0077 41.9665 33.1239 41.9665H35.6541V39.7341H34.5378C34.1658 39.7341 33.9425 39.5853 33.9425 39.1388V28.5718H31.338V34.8227C31.338 37.5016 29.7008 39.8829 26.873 39.8829C24.715 39.8829 24.3429 38.3946 24.3429 36.5342V30.2089C24.3429 29.0927 23.822 28.5718 22.557 28.5718H19.878V30.8042H20.9942C21.3663 30.8042 21.5896 30.9531 21.5896 31.3996V37.1295ZM38.4074 40.255C38.4074 41.4456 38.9283 41.9665 40.119 41.9665H42.7235V39.7341H41.6073C41.2352 39.7341 41.012 39.5853 41.012 39.1388V24.9254C41.012 23.7348 40.4911 23.2139 39.3004 23.2139H36.6959V25.4463H37.8121C38.1842 25.4463 38.4074 25.5952 38.4074 26.0417V40.255ZM45.849 37.0551C45.849 41.5201 49.3465 42.041 51.058 42.041C51.6534 42.041 51.951 41.9665 51.951 41.9665V39.6597C51.951 39.6597 51.7278 39.7341 51.3557 39.7341C50.3883 39.7341 48.4535 39.362 48.4535 36.6831V30.5066H51.7278V28.423H48.4535V24.7022H45.9234V28.423H44.063V30.5066H45.849V37.0551ZM61.253 35.1947C61.253 39.2876 64.5272 42.2642 68.6201 42.2642C72.7129 42.2642 75.9872 39.2876 75.9872 35.1947C75.9872 31.1763 72.7129 28.1997 68.6201 28.1997C64.5272 28.1997 61.253 31.1763 61.253 35.1947ZM63.9319 35.1947C63.9319 32.4414 66.0155 30.4322 68.6201 30.4322C71.2246 30.4322 73.3083 32.4414 73.3083 35.1947C73.3083 38.0225 71.2246 40.0317 68.6201 40.0317C66.0155 40.0317 63.9319 38.0225 63.9319 35.1947ZM79.2615 41.9665H81.866V30.581H85.1403V28.4974H81.866V28.1253C81.866 25.6696 83.7264 25.2975 84.7682 25.2975C85.1403 25.2975 85.438 25.3719 85.438 25.3719V23.1395C85.438 23.1395 85.0659 23.065 84.4706 23.065C82.759 23.065 79.2615 23.586 79.2615 28.0509V28.4974H77.5499V30.581H79.2615V41.9665ZM93.6236 41.9665H96.0049C97.27 41.9665 97.7165 41.4456 97.7909 40.255L98.5351 30.3578C98.6095 29.2415 98.6095 27.6044 98.6095 27.6044H98.6839C98.6839 27.6044 99.2792 29.3904 99.7257 30.3578L103.595 38.5434H105.902L109.772 30.3578C110.218 29.3159 110.739 27.6044 110.739 27.6044H110.814C110.814 27.6044 110.814 29.2415 110.888 30.3578L111.707 40.255C111.781 41.4456 112.227 41.9665 113.418 41.9665H115.799V39.6597H114.906C114.534 39.6597 114.311 39.4364 114.311 39.0644L113.046 23.2139H110.218L105.753 33.1111C105.307 34.1529 104.786 35.4924 104.786 35.4924H104.712C104.712 35.4924 104.191 34.1529 103.744 33.1111L99.2792 23.2139H96.4514L95.1864 39.0644C95.1864 39.4364 94.9631 39.6597 94.591 39.6597H93.6981V41.9665H93.6236ZM117.288 38.1714C117.288 40.8503 119.595 42.2642 121.976 42.2642C125.25 42.2642 126.366 39.5853 126.366 39.5853H126.441C126.441 39.5853 126.366 39.9573 126.366 40.4038C126.366 41.3712 126.887 41.9665 128.078 41.9665H130.534V39.7341H129.417C129.045 39.7341 128.822 39.5853 128.822 39.1388V33.4088C128.822 30.4322 127.631 28.1253 123.167 28.1253C121.827 28.1253 118.404 28.423 118.404 30.6554V31.9949H120.86V31.2507C120.86 30.3578 122.422 30.2089 123.092 30.2089C125.25 30.2089 126.143 31.0275 126.143 33.4088V33.5576H125.548C123.241 33.632 117.288 33.8553 117.288 38.1714ZM119.967 38.0225C119.967 35.5668 123.539 35.418 125.548 35.418H126.218V35.8645C126.218 37.8737 124.804 40.1062 122.571 40.1062C120.785 40.1806 119.967 39.1388 119.967 38.0225ZM132.022 35.2692C132.022 39.2876 134.999 42.2642 139.315 42.2642C142.961 42.2642 144.896 39.9573 144.896 39.9573L143.78 38.097C143.78 38.097 142.068 39.9573 139.538 39.9573C137.008 39.9573 134.701 38.2458 134.701 35.1947C134.701 32.367 136.71 30.4322 139.389 30.4322C140.357 30.4322 141.919 30.8787 141.919 31.8461V32.5902H144.301V31.1763C144.301 28.8694 141.026 28.1997 139.389 28.1997C134.924 28.1997 132.022 31.3251 132.022 35.2692Z" fill="black"/>
</g>
</g>
<defs>
<clipPath id="clip0_1_177">
<rect width="145.11" height="64" fill="white" transform="translate(0.529999 0.590088)"/>
</clipPath>
<clipPath id="clip1_1_177">
<rect width="145.11" height="64" fill="white" transform="translate(0.529999 0.590088)"/>
</clipPath>
</defs>
</svg>
