<svg width="80" height="65" viewBox="0 0 80 65" fill="none" xmlns="http://www.w3.org/2000/svg">
<g clip-path="url(#clip0_1_163)">
<g clip-path="url(#clip1_1_163)">
<g clip-path="url(#clip2_1_163)">
<path d="M78.6384 32.3846L77.924 32.5781C77.2373 30.2557 76.0869 29.2523 74.4626 29.2523C73.3215 29.2523 72.5186 30.0008 72.5186 31.1876C72.5186 32.3236 73.4654 32.9294 76.0082 33.959C78.3556 34.8183 79.33 35.8711 79.33 37.7096C79.33 40.5086 77.1216 42.2639 73.4979 42.2639C71.7483 42.2639 69.777 41.8759 68.6631 41.4327L68.5241 37.5437L69.2108 37.4053C70.2412 40.0664 71.5583 41.0727 73.2753 41.0727C74.7601 41.0727 75.5401 40.047 75.5401 38.9942C75.5401 37.9414 74.9375 37.3313 72.6173 36.5001C70.4089 35.7743 68.8964 34.8371 68.8964 32.5002C68.8964 30.2001 70.9279 28.2507 74.3897 28.2507C76.0227 28.2507 77.5075 28.528 78.4819 28.9765L78.6384 32.3846ZM63.6888 33.6038C63.7724 31.775 63.4011 29.1332 61.8887 29.1332C60.3334 29.1332 59.4853 31.5998 59.4576 33.7151L63.6888 33.6038ZM62.26 28.2459C66.0644 28.2459 67.8977 31.0173 67.9297 34.6567H59.3741C59.3464 37.8804 61.0629 40.3194 64.273 40.3194C65.6742 40.3194 66.4814 39.9314 67.3349 39.3218L67.7334 39.765C66.7871 41.0398 64.8382 42.2591 62.24 42.2591C58.0643 42.2591 55.1686 39.4045 55.1686 35.3771C55.1589 31.7372 57.5355 28.2454 62.258 28.2454M49.9183 34.99C49.8347 32.1078 48.7771 29.8261 46.7447 29.8261C46.2621 29.8261 45.8907 29.9093 45.3158 30.1033L45.483 41.1797C45.6871 41.2629 46.1697 41.3181 46.5133 41.3181C48.4899 41.3181 49.9183 38.538 49.9183 34.99ZM54.1597 34.7679C54.1597 39.3222 51.2645 42.2596 46.3738 42.2596C44.6242 42.2596 42.8197 41.9824 41.2513 41.6224C41.3903 39.7935 41.3903 28.4622 41.2513 26.3333C41.1123 25.2205 40.7964 24.698 39.9391 24.5915L39.3637 24.5359V24.0279L45.3989 22.916C45.3712 23.858 45.3153 26.3338 45.3153 29.2445C46.3734 28.7181 47.3468 28.4133 48.6654 28.4133C51.8113 28.4133 54.1587 31.0744 54.1587 34.7689M38.7834 32.2927C36.9181 31.0734 34.9138 31.5998 34.5148 32.2927C34.3383 34.4215 34.3758 37.7116 34.5425 39.3968C34.6261 40.5096 34.941 40.9765 35.8046 41.0597L36.9458 41.171V41.8967H28.4178V41.171L29.0768 41.0597C29.903 40.9765 30.1946 40.5052 30.2462 39.3968C30.4503 37.5955 30.5062 33.8172 30.2462 31.7387C30.1903 30.547 29.903 30.1033 29.0768 29.9969L28.4178 29.9137V29.4153L34.5143 28.2512L34.4307 31.355C35.8596 28.1404 38.6993 27.7524 40.2395 28.6117L38.7834 32.2927ZM18.7769 35.2673C18.7769 38.6575 19.7003 41.4288 21.5471 41.4288C23.5514 41.4288 24.1268 38.7131 24.1268 35.2673C24.1268 31.8214 23.2404 29.1332 21.3561 29.1332C19.3426 29.1332 18.7769 31.7663 18.7769 35.2673ZM28.4455 35.2116C28.4455 39.1007 25.8658 42.2601 21.2633 42.2601C16.7352 42.2601 14.4524 39.2579 14.4524 35.3219C14.4524 31.461 17.0321 28.2459 21.6346 28.2459C26.1627 28.2459 28.4455 31.2669 28.4455 35.2116ZM16.5962 28.5285L15.6499 28.8057C14.8519 26.0808 13.4415 24.5286 11.01 24.5286H7.83635C7.65993 26.3391 7.57634 29.1381 7.65993 32.1586L9.77553 32.0474C11.2044 32.0474 11.807 31.0216 12.1511 29.5256H12.9492V35.8251H12.1511C11.808 34.301 11.2049 33.2608 9.77553 33.1834L7.65993 33.1558C7.65993 35.4008 7.68764 37.3168 7.83635 38.4862C7.97535 40.1491 8.439 40.9063 9.66374 41.0636L10.8146 41.1748V41.9006H0.450012V41.1748L1.31316 41.0636C2.5102 40.8971 3.00204 40.1443 3.14055 38.4862C3.37238 35.7704 3.42827 29.9688 3.14055 26.7451C3.00155 25.0275 2.50971 24.3341 1.31316 24.1953L0.450012 24.0569V23.3079H16.5689L16.5962 28.5285Z" fill="black"/>
</g>
</g>
</g>
<defs>
<clipPath id="clip0_1_163">
<rect width="78.88" height="64" fill="white" transform="translate(0.450012 0.590088)"/>
</clipPath>
<clipPath id="clip1_1_163">
<rect width="78.88" height="64" fill="white" transform="translate(0.450012 0.590088)"/>
</clipPath>
<clipPath id="clip2_1_163">
<rect width="78.88" height="63.997" fill="white" transform="translate(0.450012 0.591553)"/>
</clipPath>
</defs>
</svg>
