<svg width="159" height="65" viewBox="0 0 159 65" fill="none" xmlns="http://www.w3.org/2000/svg">
<g clip-path="url(#clip0_1_193)">
<g clip-path="url(#clip1_1_193)">
<path d="M2.3441 27.5296C3.23712 27.5296 3.90689 26.8599 3.90689 25.9668C3.90689 25.0738 3.16271 24.4041 2.3441 24.4041C1.5255 24.4041 0.781311 25.0738 0.781311 25.9668C0.781311 26.8599 1.45108 27.5296 2.3441 27.5296ZM3.5348 40.5529V28.9436H1.07899V40.5529H3.5348ZM12.8371 40.5529C17.8232 40.5529 21.172 37.2785 21.172 32.5157C21.172 27.8273 17.8232 24.5529 12.8371 24.5529H6.88364V40.5529H12.8371ZM12.8371 38.0971H9.71154V27.0087H12.8371C16.3348 27.0087 18.2697 29.4645 18.2697 32.5157C18.2697 35.5668 16.2604 38.0971 12.8371 38.0971ZM28.986 40.8506C32.6325 40.8506 34.865 38.0971 34.865 34.7482C34.865 31.3994 32.6325 28.6459 28.986 28.6459C25.3395 28.6459 23.1069 31.3994 23.1069 34.7482C23.0325 38.0227 25.265 40.8506 28.986 40.8506ZM28.986 38.618C26.8278 38.618 25.6371 36.832 25.6371 34.7482C25.6371 32.7389 26.8278 30.8785 28.986 30.8785C31.1441 30.8785 32.3348 32.6645 32.3348 34.7482C32.2604 36.7575 31.1441 38.618 28.986 38.618ZM50.1208 40.5529L53.6929 28.9436H51.0883L48.6325 37.3529L45.879 28.9436H43.6464L40.9674 37.3529L38.5115 28.9436H35.9069L39.479 40.5529H42.0836L44.7627 32.0692L47.4418 40.5529H50.1208ZM65.7488 40.5529V32.3668C65.7488 29.9854 64.4836 28.6459 62.0278 28.6459C60.2418 28.6459 58.679 29.6134 57.9348 30.5064V28.9436H55.4046V40.5529H57.9348V32.4413C58.5302 31.6971 59.6464 30.8785 60.9115 30.8785C62.3255 30.8785 63.2185 31.4738 63.2185 33.2599V40.4785H65.7488V40.5529ZM71.479 40.5529V24.5529H68.9488V40.5529H71.479ZM79.9627 40.8506C83.6092 40.8506 85.8418 38.0971 85.8418 34.7482C85.8418 31.3994 83.6092 28.6459 79.9627 28.6459C76.3162 28.6459 74.0836 31.3994 74.0836 34.7482C74.0836 38.0227 76.3162 40.8506 79.9627 40.8506ZM79.9627 38.618C77.8046 38.618 76.6139 36.832 76.6139 34.7482C76.6139 32.7389 77.8046 30.8785 79.9627 30.8785C82.1208 30.8785 83.3115 32.6645 83.3115 34.7482C83.3115 36.7575 82.1208 38.618 79.9627 38.618ZM97.972 40.5529V32.8134C97.972 29.6878 95.7394 28.6459 93.1348 28.6459C91.2743 28.6459 89.6371 29.2413 88.2976 30.5064L89.3394 32.2924C90.3069 31.2506 91.4976 30.8041 92.7627 30.8041C94.3255 30.8041 95.4418 31.6227 95.4418 32.9622V34.6738C94.5488 33.7064 93.2836 33.1854 91.7208 33.1854C89.8604 33.1854 87.7022 34.3017 87.7022 36.9808C87.7022 39.511 89.8604 40.8506 91.7208 40.8506C93.2836 40.8506 94.6232 40.3296 95.4418 39.2878V40.5529H97.972ZM92.7627 39.0645C91.3488 39.0645 90.3069 38.2459 90.3069 36.9808C90.3069 35.7157 91.3488 34.8971 92.7627 34.8971C93.8046 34.8971 94.9208 35.2692 95.5162 36.0878V37.8738C94.9208 38.6924 93.8046 39.0645 92.7627 39.0645ZM111.814 40.5529V24.5529H109.284V30.5808C108.391 29.3157 107.051 28.7203 105.563 28.7203C102.586 28.7203 100.428 31.0273 100.428 34.8227C100.428 38.6924 102.586 40.925 105.563 40.925C107.051 40.925 108.391 40.1808 109.284 39.0645V40.6273H111.814V40.5529ZM106.381 38.618C104.372 38.618 103.107 36.9808 103.107 34.7482C103.107 32.5157 104.372 30.8785 106.381 30.8785C107.572 30.8785 108.763 31.5482 109.358 32.4413V37.0552C108.763 37.8738 107.572 38.618 106.381 38.618ZM122.158 40.5529C124.986 40.5529 126.698 38.9157 126.698 36.2366C126.698 34.3761 125.284 32.5901 123.572 32.2924C124.986 31.9947 126.325 30.6552 126.325 28.6459C126.325 26.1157 124.614 24.5529 121.935 24.5529H115.386V40.5529H122.158ZM121.786 31.6971H116.8V25.7436H121.786C123.87 25.7436 124.912 27.0831 124.912 28.7203C124.912 30.432 123.87 31.6971 121.786 31.6971ZM121.935 39.2878H116.8V32.9622H121.935C124.167 32.9622 125.284 34.525 125.284 36.1622C125.284 38.0971 124.019 39.2878 121.935 39.2878ZM131.312 40.5529V24.5529H130.046V40.5529H131.312ZM140.019 40.8506C143.442 40.8506 145.6 38.1715 145.6 34.7482C145.6 31.325 143.442 28.6459 140.019 28.6459C136.67 28.6459 134.512 31.325 134.512 34.7482C134.512 38.1715 136.67 40.8506 140.019 40.8506ZM140.019 39.6599C137.339 39.6599 135.851 37.2785 135.851 34.6738C135.851 32.0692 137.414 29.7622 140.019 29.7622C142.772 29.7622 144.26 32.1436 144.26 34.6738C144.26 37.3529 142.772 39.6599 140.019 39.6599ZM153.339 45.2413C156.093 45.2413 158.549 43.9761 158.549 40.4041V28.9436H157.284V30.8041C156.391 29.4645 154.902 28.6459 153.265 28.6459C150.214 28.6459 148.13 31.0273 148.13 34.7482C148.13 38.4692 150.214 40.7761 153.265 40.7761C154.977 40.7761 156.465 39.8087 157.284 38.618V40.4785C157.284 43.0831 155.423 44.125 153.339 44.125C151.628 44.125 150.512 43.6785 149.47 42.4878L148.725 43.5296C150.214 44.8692 151.405 45.2413 153.339 45.2413ZM153.488 39.6599C150.958 39.6599 149.47 37.5761 149.47 34.7482C149.47 31.9203 150.958 29.8366 153.488 29.8366C155.051 29.8366 156.614 30.8041 157.284 31.9203V37.5761C156.614 38.6924 155.125 39.6599 153.488 39.6599Z" fill="black"/>
</g>
</g>
<defs>
<clipPath id="clip0_1_193">
<rect width="157.77" height="64" fill="white" transform="translate(0.780029 0.590088)"/>
</clipPath>
<clipPath id="clip1_1_193">
<rect width="157.767" height="64" fill="white" transform="translate(0.781311 0.590088)"/>
</clipPath>
</defs>
</svg>
