<svg width="1920" height="758" viewBox="0 0 1920 758" fill="none" xmlns="http://www.w3.org/2000/svg">
<g clip-path="url(#clip0_1_132)">
<g clip-path="url(#clip1_1_132)">
<g clip-path="url(#clip2_1_132)">
<path d="M1274.45 -581.038C1288.06 -578.142 1333.57 -560.62 1327.6 -532.508C1321.63 -504.395 1273.05 -506.738 1258.46 -509.842C1243.87 -512.948 1227.86 -527.237 1233.24 -552.589C1238.62 -577.94 1260.85 -583.933 1274.45 -581.038ZM1218.93 -301.851C1232.54 -298.955 1278.05 -281.433 1272.08 -253.321C1266.11 -225.209 1217.53 -227.551 1202.94 -230.656C1188.35 -233.761 1172.34 -248.051 1177.72 -273.402C1183.1 -298.753 1205.33 -304.746 1218.93 -301.851ZM577.837 441.523C516.473 390.032 466.947 328.022 430.583 257.251C395.55 188.89 374.255 115.484 367.374 38.9604C360.483 -37.6735 368.31 -113.631 390.654 -186.798C413.784 -262.574 451.508 -332.024 502.767 -393.112C554.026 -454.2 615.871 -503.411 686.512 -539.388C754.711 -574.044 828.132 -594.995 904.748 -601.456C981.341 -607.971 1057.38 -599.807 1130.73 -577.153C1149.71 -571.238 1167.04 -561.863 1182.19 -549.151C1227.66 -510.996 1245.92 -449.738 1228.65 -393.136C1205.04 -315.688 1122.59 -272.197 1044.96 -296.157C1008.13 -307.563 969.802 -311.684 931.118 -308.412C892.382 -305.08 855.388 -294.571 821.131 -277.137C785.668 -259.081 754.633 -234.28 728.777 -203.466C702.922 -172.653 683.887 -137.784 672.28 -99.744C661.026 -62.9397 657.117 -24.7023 660.596 13.9828C664.034 52.6341 674.748 89.6652 692.383 124.031C710.62 159.513 735.589 190.64 766.552 216.621C797.535 242.619 832.525 261.803 870.655 273.619C907.541 285.002 945.85 289.105 984.531 285.797C1023.18 282.492 1060.17 272.02 1094.5 254.542C1129.98 236.466 1161.04 211.719 1186.88 180.926C1238.91 118.919 1331.9 110.991 1394.21 163.272C1456.5 215.537 1464.86 308.514 1412.83 370.52C1361.57 431.608 1299.74 480.836 1229.1 516.739C1160.96 551.483 1087.52 572.38 1010.87 578.918C934.294 585.413 858.266 577.155 784.899 554.558C708.889 531.036 639.201 493.013 577.837 441.523ZM1296.99 -381.14C1312.17 -377.909 1368.44 -357.191 1361.78 -325.822C1355.12 -294.454 1295.43 -298.233 1279.15 -301.698C1262.87 -305.162 1245 -321.108 1251.01 -349.395C1257.01 -377.683 1281.81 -384.37 1296.99 -381.14ZM1317.09 -486.256C1332.27 -483.026 1387.04 -462.625 1380.38 -431.256C1373.72 -399.888 1315.52 -403.35 1299.24 -406.815C1282.96 -410.279 1265.09 -426.224 1271.1 -454.512C1277.1 -482.8 1301.91 -489.487 1317.09 -486.256Z" fill="url(#paint0_linear_1_132)"/>
<mask id="mask0_1_132" style="mask-type:luminance" maskUnits="userSpaceOnUse" x="364" y="-604" width="1083" height="1186">
<path d="M1274.45 -581.038C1288.06 -578.142 1333.57 -560.62 1327.6 -532.508C1321.63 -504.395 1273.05 -506.738 1258.46 -509.842C1243.87 -512.948 1227.86 -527.237 1233.24 -552.589C1238.62 -577.94 1260.85 -583.933 1274.45 -581.038ZM1218.93 -301.851C1232.54 -298.955 1278.05 -281.433 1272.08 -253.321C1266.11 -225.209 1217.53 -227.551 1202.94 -230.656C1188.35 -233.761 1172.34 -248.051 1177.72 -273.402C1183.1 -298.753 1205.33 -304.746 1218.93 -301.851ZM577.837 441.523C516.473 390.032 466.947 328.022 430.583 257.251C395.55 188.89 374.255 115.484 367.374 38.9604C360.483 -37.6735 368.31 -113.631 390.654 -186.798C413.784 -262.574 451.508 -332.024 502.767 -393.112C554.026 -454.2 615.871 -503.411 686.512 -539.388C754.711 -574.044 828.132 -594.995 904.748 -601.456C981.341 -607.971 1057.38 -599.807 1130.73 -577.153C1149.71 -571.238 1167.04 -561.863 1182.19 -549.151C1227.66 -510.996 1245.92 -449.738 1228.65 -393.136C1205.04 -315.688 1122.59 -272.197 1044.96 -296.157C1008.13 -307.563 969.802 -311.684 931.118 -308.412C892.382 -305.08 855.388 -294.571 821.131 -277.137C785.668 -259.081 754.633 -234.28 728.777 -203.466C702.922 -172.653 683.887 -137.784 672.28 -99.744C661.026 -62.9397 657.117 -24.7023 660.596 13.9828C664.034 52.6341 674.748 89.6652 692.383 124.031C710.62 159.513 735.589 190.64 766.552 216.621C797.535 242.619 832.525 261.803 870.655 273.619C907.541 285.002 945.85 289.105 984.531 285.797C1023.18 282.492 1060.17 272.02 1094.5 254.542C1129.98 236.466 1161.04 211.719 1186.88 180.926C1238.91 118.919 1331.9 110.991 1394.21 163.272C1456.5 215.537 1464.86 308.514 1412.83 370.52C1361.57 431.608 1299.74 480.836 1229.1 516.739C1160.96 551.483 1087.52 572.38 1010.87 578.918C934.294 585.413 858.266 577.155 784.899 554.558C708.889 531.036 639.201 493.013 577.837 441.523ZM1296.99 -381.14C1312.17 -377.909 1368.44 -357.191 1361.78 -325.822C1355.12 -294.454 1295.43 -298.233 1279.15 -301.698C1262.87 -305.162 1245 -321.108 1251.01 -349.395C1257.01 -377.683 1281.81 -384.37 1296.99 -381.14ZM1317.09 -486.256C1332.27 -483.026 1387.04 -462.625 1380.38 -431.256C1373.72 -399.888 1315.52 -403.35 1299.24 -406.815C1282.96 -410.279 1265.09 -426.224 1271.1 -454.512C1277.1 -482.8 1301.91 -489.487 1317.09 -486.256Z" fill="white"/>
</mask>
<g mask="url(#mask0_1_132)">
<mask id="mask1_1_132" style="mask-type:luminance" maskUnits="userSpaceOnUse" x="365" y="-607" width="1187" height="1187">
<path d="M577.299 441.068C326.416 230.551 293.692 -143.487 504.208 -394.37C714.724 -645.253 1088.76 -677.977 1339.65 -467.461C1590.53 -256.944 1623.25 117.094 1412.74 367.977C1202.22 618.86 828.182 651.584 577.299 441.068ZM767.168 217.902C893.244 323.693 1081.21 307.248 1187 181.172C1292.79 55.0958 1276.35 -132.869 1150.27 -238.66C1024.19 -344.451 836.228 -328.006 730.438 -201.93C624.647 -75.8534 641.092 112.112 767.168 217.902Z" fill="white"/>
</mask>
<g mask="url(#mask1_1_132)">
<g opacity="0.556" filter="url(#filter0_f_1_132)">
<path d="M242.844 334.045C318.151 397.236 434.167 382.955 501.972 302.147C569.778 221.34 563.696 104.607 488.389 41.4166C413.082 -21.7738 297.066 -7.49248 229.261 73.3147C161.455 154.122 167.537 270.855 242.844 334.045Z" fill="#E4FDFF"/>
</g>
</g>
</g>
</g>
</g>
</g>
<defs>
<filter id="filter0_f_1_132" x="82.1318" y="-98.0162" width="566.969" height="571.495" filterUnits="userSpaceOnUse" color-interpolation-filters="sRGB">
<feFlood flood-opacity="0" result="BackgroundImageFix"/>
<feBlend mode="normal" in="SourceGraphic" in2="BackgroundImageFix" result="shape"/>
<feGaussianBlur stdDeviation="50" result="effect1_foregroundBlur_1_132"/>
</filter>
<linearGradient id="paint0_linear_1_132" x1="42265.6" y1="93477.9" x2="-54091.3" y2="57661.6" gradientUnits="userSpaceOnUse">
<stop stop-color="white"/>
<stop offset="0.31065" stop-color="#F2E8FF"/>
<stop offset="0.47307" stop-color="#FDE7F8" stop-opacity="0.702"/>
<stop offset="0.65653" stop-color="#F5EFFF"/>
<stop offset="0.82255" stop-color="#FDF2FD"/>
<stop offset="1" stop-color="white"/>
</linearGradient>
<clipPath id="clip0_1_132">
<rect width="1440" height="1440" fill="white" transform="translate(871.26 -1026.27) rotate(40)"/>
</clipPath>
<clipPath id="clip1_1_132">
<rect width="1440" height="1440" fill="white" transform="translate(871.26 -1026.27) rotate(40)"/>
</clipPath>
<clipPath id="clip2_1_132">
<rect width="1440" height="1440" fill="white" transform="translate(871.26 -1026.27) rotate(40)"/>
</clipPath>
</defs>
</svg>
