<svg width="150" height="65" viewBox="0 0 150 65" fill="none" xmlns="http://www.w3.org/2000/svg">
<g clip-path="url(#clip0_1_172)">
<g clip-path="url(#clip1_1_172)">
<g clip-path="url(#clip2_1_172)">
<path d="M55.7359 40.7757V32.0692L52.9826 40.7757H50.9734L48.2944 32.0692V40.7757H45.6899V24.2556H48.2944L52.0152 35.1946L55.7359 24.2556H58.3405V40.7757H55.7359ZM70.5445 40.7757C66.8238 41.1478 61.4659 41.8175 61.4659 36.7573V34.8225C61.4659 33.111 62.1356 32.1436 63.103 31.6971C64.7402 30.8785 67.1214 31.6227 67.94 32.0692C67.94 30.8041 66.6005 30.5809 65.4099 30.5809L65.6331 28.7949C70.5445 28.7949 70.5445 31.4739 70.5445 33.7807V40.7757ZM68.0144 34.8225C67.1214 34.2272 64.1448 33.111 64.1448 35.1202V36.3852C64.1448 37.948 65.1867 38.9154 68.0144 38.3944V34.8225ZM80.9626 40.6269C79.3255 41.0734 77.4651 41.1478 76.0512 40.7013C74.1909 40.106 73.4467 38.9154 73.4467 36.5341V33.4831C73.4467 28.8693 77.3163 27.7531 80.9626 29.4646L80.2929 31.6971C77.4651 30.5809 76.0512 31.6971 76.0512 33.3342V36.7573C76.0512 38.9898 79.5488 38.3944 80.3673 38.0224L80.9626 40.6269ZM85.9484 36.162C86.0973 37.5015 87.1391 38.4689 88.7018 38.4689C90.7854 38.4689 91.5296 37.2038 91.5296 36.3852C91.5296 31.7715 83.5672 33.4086 83.5672 28.0508C83.5672 26.0416 85.2043 23.9579 88.925 23.9579C90.5622 23.9579 91.4551 24.1812 92.3481 24.7021C92.3481 24.7021 91.8272 26.3392 91.5296 27.1578C90.6366 26.8601 89.9669 26.6369 88.925 26.6369C86.9902 26.6369 86.3205 27.381 86.3949 28.274C86.6182 30.5809 94.3573 30.5065 94.3573 36.0876C94.3573 38.6921 92.7202 40.9246 88.7018 40.9246C85.0555 40.9246 83.1951 38.5433 83.1207 36.4597L85.9484 36.162ZM100.534 41.0734C97.706 40.999 96.9619 39.5107 96.9619 37.6503V24.2556H99.5664V28.9437H101.799L101.204 31.3994H99.5664V37.6503C99.5664 38.8409 100.311 38.9898 101.278 38.9898L100.534 41.0734ZM112.589 36.4597C112.589 38.8409 111.324 40.999 108.199 40.999C105.148 40.999 103.734 38.8409 103.734 36.4597V33.3342C103.734 30.3576 105.296 28.7205 108.199 28.7205C110.952 28.7205 112.589 30.5065 112.589 33.3342V36.4597ZM109.984 33.3342C109.984 31.3994 108.868 31.325 108.199 31.325C107.38 31.325 106.338 31.6227 106.338 33.3342V36.6829C106.338 38.0224 107.231 38.4689 108.199 38.4689C109.166 38.4689 109.984 37.948 109.984 36.6829V33.3342ZM115.566 40.7757V28.9437H117.947L118.17 29.0182C119.807 28.4228 120.923 28.7949 122.189 29.0182L121.593 31.5483C120.031 30.7297 118.17 31.4739 118.17 33.1854V40.7757H115.566ZM124.198 25.4462C124.198 24.7021 124.867 24.1068 125.612 24.1068C126.356 24.1068 126.951 24.7765 126.951 25.4462C126.951 26.1904 126.281 26.8601 125.612 26.8601C124.867 26.8601 124.198 26.1904 124.198 25.4462ZM124.198 40.7757V28.9437H126.802V40.7757H124.198ZM132.532 36.6085V37.2782C132.532 38.8409 134.021 39.213 136.848 37.7247L137.816 39.9572C136.699 40.6269 135.286 41.0734 133.946 41.0734C131.639 41.1478 129.928 40.106 129.928 37.6503V32.8133C129.928 30.2088 131.714 28.7949 134.244 28.7949C136.848 28.7949 138.411 30.2832 138.411 32.7389V36.3108L132.532 36.6085ZM135.806 32.7389C135.806 31.7715 135.062 31.2506 134.244 31.2506C132.904 31.2506 132.532 32.1436 132.532 32.7389V34.1528L135.806 33.9295V32.7389ZM143.248 37.5015C143.248 37.948 143.694 38.6921 145.034 38.6921C146.15 38.6921 146.671 38.0224 146.671 37.4271C146.671 34.9714 141.388 36.2364 140.941 32.218C140.792 30.7297 141.834 28.7205 144.96 28.7205C146.597 28.7205 147.564 29.3902 147.564 29.3902L146.82 31.7715C146.82 31.7715 146.299 31.2506 144.96 31.2506C143.471 31.2506 143.694 31.9948 143.769 32.218C144.067 33.5575 149.424 33.1854 149.424 37.4271C149.424 39.2874 148.159 41.0734 145.034 41.0734C142.206 41.0734 140.718 39.5107 140.643 37.7247L143.248 37.5015ZM19.1238 13.9863C29.393 13.9863 37.7275 22.3208 37.7275 32.5901C37.7275 42.8593 29.393 51.1938 19.1238 51.1938C8.8545 51.1938 0.52002 42.8593 0.52002 32.5901C0.52002 22.3208 8.8545 13.9863 19.1238 13.9863ZM27.8303 44.05V21.1302C27.8303 20.9813 27.6815 20.8325 27.5327 20.8325H10.7893C10.6405 20.8325 10.4916 20.9813 10.4916 21.1302V44.05C10.4916 44.1988 10.6405 44.3476 10.7893 44.3476C10.7893 44.3476 18.2308 39.3618 19.1238 39.3618C20.0167 39.3618 27.4583 44.3476 27.4583 44.3476C27.6815 44.3476 27.8303 44.1988 27.8303 44.05Z" fill="black"/>
</g>
</g>
</g>
<defs>
<clipPath id="clip0_1_172">
<rect width="148.83" height="64" fill="white" transform="translate(0.52002 0.590088)"/>
</clipPath>
<clipPath id="clip1_1_172">
<rect width="148.83" height="64" fill="white" transform="translate(0.52002 0.590088)"/>
</clipPath>
<clipPath id="clip2_1_172">
<rect width="148.83" height="63.9969" fill="white" transform="translate(0.52002 0.591553)"/>
</clipPath>
</defs>
</svg>
