<svg width="56" height="57" viewBox="0 0 56 57" fill="none" xmlns="http://www.w3.org/2000/svg">
<g clip-path="url(#clip0_1_1301)">
<path d="M28 0.360107C33.6531 0.360107 38.6486 1.58684 42.7968 3.85061C46.9449 6.11438 50.2457 9.41519 52.5095 13.5633C54.7733 17.7115 56 22.707 56 28.3601C56 34.0132 54.7733 39.0087 52.5095 43.1569C50.2457 47.305 46.9449 50.6058 42.7968 52.8696C38.6486 55.1334 33.6531 56.3601 28 56.3601C22.3469 56.3601 17.3514 55.1334 13.2032 52.8696C9.05508 50.6058 5.75427 47.305 3.4905 43.1569C1.22673 39.0087 0 34.0132 0 28.3601C0 22.707 1.22673 17.7115 3.4905 13.5633C5.75427 9.41519 9.05508 6.11438 13.2032 3.85061C17.3514 1.58684 22.3469 0.360107 28 0.360107ZM28 2.36011C22.7473 2.36011 18.0642 3.47625 14.1613 5.6062C10.35 7.68614 7.32604 10.7101 5.24609 14.5214C3.11614 18.4243 2 23.1074 2 28.3601C2 33.6128 3.11614 38.2959 5.24609 42.1988C7.32604 46.0101 10.35 49.0341 14.1613 51.114C18.0642 53.244 22.7473 54.3601 28 54.3601C33.2527 54.3601 37.9358 53.244 41.8387 51.114C45.65 49.0341 48.674 46.0101 50.7539 42.1988C52.8839 38.2959 54 33.6128 54 28.3601C54 23.1074 52.8839 18.4243 50.7539 14.5214C48.674 10.7101 45.65 7.68614 41.8387 5.6062C37.9358 3.47625 33.2527 2.36011 28 2.36011ZM28 6.36011C32.5486 6.36011 36.5092 7.28836 39.7685 9.03143C43.0277 10.7745 45.5856 13.3324 47.3287 16.5917C49.0717 19.8509 50 23.8115 50 28.3601C50 32.9087 49.0717 36.8693 47.3287 40.1286C45.5856 43.3878 43.0277 45.9457 39.7685 47.6888C36.5092 49.4319 32.5486 50.3601 28 50.3601C23.4514 50.3601 19.4908 49.4319 16.2315 47.6888C12.9723 45.9457 10.4144 43.3878 8.67133 40.1286C6.92826 36.8693 6 32.9087 6 28.3601C6 23.8115 6.92826 19.8509 8.67133 16.5917C10.4144 13.3324 12.9723 10.7745 16.2315 9.03143C19.4908 7.28836 23.4514 6.36011 28 6.36011ZM28 8.36011C23.8154 8.36011 20.1662 9.19523 17.1747 10.7951C14.264 12.3517 11.9916 14.6241 10.435 17.5348C8.83513 20.5263 8 24.1755 8 28.3601C8 32.5447 8.83513 36.1939 10.435 39.1854C11.9916 42.0961 14.264 44.3685 17.1747 45.9252C20.1662 47.525 23.8154 48.3601 28 48.3601C32.1846 48.3601 35.8338 47.525 38.8253 45.9252C41.736 44.3685 44.0084 42.0961 45.565 39.1854C47.1649 36.1939 48 32.5447 48 28.3601C48 24.1755 47.1649 20.5263 45.565 17.5348C44.0084 14.6241 41.736 12.3517 38.8253 10.7951C35.8338 9.19523 32.1846 8.36011 28 8.36011ZM20.2929 29.5543C19.9024 29.1638 19.9024 28.5306 20.2929 28.1401C20.6834 27.7496 21.3166 27.7496 21.7071 28.1401L26.7325 33.1656L36.2451 23.653C36.6356 23.2625 37.2688 23.2625 37.6593 23.653C38.0498 24.0435 38.0498 24.6767 37.6593 25.0672L28.1468 34.5798C27.3657 35.3608 26.0994 35.3608 25.3183 34.5798L20.2929 29.5543Z" fill="white"/>
</g>
<defs>
<clipPath id="clip0_1_1301">
<rect width="56" height="56" fill="white" transform="translate(0 0.360107)"/>
</clipPath>
</defs>
</svg>
