<svg width="22" height="22" viewBox="0 0 22 22" fill="none" xmlns="http://www.w3.org/2000/svg">
<g clip-path="url(#clip0_1_1280)">
<path d="M10.89 21.4501C5.09102 21.4501 0.390015 16.7491 0.390015 10.9501C0.390015 5.15108 5.09102 0.450073 10.89 0.450073C16.689 0.450073 21.39 5.15108 21.39 10.9501C21.39 16.7491 16.689 21.4501 10.89 21.4501ZM10.89 19.3501C15.5292 19.3501 19.29 15.5893 19.29 10.9501C19.29 6.31088 15.5292 2.55007 10.89 2.55007C6.25082 2.55007 2.49001 6.31088 2.49001 10.9501C2.49001 15.5893 6.25082 19.3501 10.89 19.3501Z" fill="#2E2E2E"/>
<path d="M9.83999 8.71207V13.1882L13.1971 10.9501L9.83999 8.71207ZM15.6724 11.8238L9.37243 16.0238C8.67464 16.489 7.73999 15.9888 7.73999 15.1501V6.75013C7.73999 5.9115 8.67464 5.41129 9.37243 5.87648L15.6724 10.0765C16.2958 10.4921 16.2958 11.4082 15.6724 11.8238Z" fill="#2E2E2E"/>
</g>
<defs>
<clipPath id="clip0_1_1280">
<rect width="21" height="21" fill="white" transform="translate(0.390015 0.450073)"/>
</clipPath>
</defs>
</svg>
