<svg width="24" height="25" viewBox="0 0 24 25" fill="none" xmlns="http://www.w3.org/2000/svg">
<g clip-path="url(#clip0_1_671)">
<path d="M12.9834 3.56576C12.4519 3.86567 12.2688 4.33981 12.529 4.78306C12.7893 5.22631 13.2856 5.29686 13.8061 5.00357C14.3266 4.71028 14.6596 4.06416 14.4369 3.68044C14.2141 3.29672 13.5238 3.24599 12.9834 3.56576ZM12.8974 5.87904C12.4431 6.13925 12.2887 6.5406 12.5004 6.92432C12.7122 7.30804 13.1489 7.36538 13.6032 7.10736C14.0576 6.84935 14.3289 6.30468 14.1458 5.97607C13.9628 5.6475 13.3518 5.6166 12.8974 5.87904ZM12.7144 3.08063C12.1806 3.38053 11.6888 3.31436 11.4352 2.86008C11.1815 2.40581 11.369 1.94934 11.8917 1.64059C12.4144 1.33185 13.1202 1.36936 13.343 1.75746C13.5657 2.1456 13.2459 2.77191 12.7144 3.08063ZM10.6566 1.99784C10.2022 2.26027 9.77435 2.19194 9.5538 1.81483C9.33326 1.43772 9.49646 1.02972 9.9508 0.769513C10.4051 0.509304 11.0161 0.535779 11.1991 0.866578C11.3822 1.19735 11.1175 1.7376 10.6566 1.99784Z" fill="black"/>
<path d="M12.0064 22.9961C9.57633 22.996 7.22145 22.1534 5.34309 20.6118C3.46473 19.0702 2.17916 16.9251 1.70543 14.5419C1.23169 12.1588 1.59912 9.68514 2.74514 7.54253C3.89122 5.39985 5.74483 3.72088 7.99011 2.79172C8.60826 2.53517 9.29608 2.50009 9.93713 2.69244C10.5782 2.88479 11.1331 3.29273 11.5079 3.84722C11.8826 4.40171 12.0541 5.06866 11.9934 5.73513C11.9328 6.40159 11.6436 7.0266 11.1749 7.50431C10.8951 7.77433 10.5704 7.99371 10.2155 8.15265C9.99495 8.26733 9.75013 8.37317 9.5362 8.50106C8.87283 8.9085 8.3212 9.47451 7.93097 10.1481C7.54074 10.8218 7.32415 11.5819 7.3007 12.36C7.27726 13.1381 7.4477 13.9099 7.79667 14.6058C8.14564 15.3017 8.6622 15.8999 9.29983 16.3465C10.2625 17.0209 11.4431 17.3097 12.6084 17.156C13.7737 17.0022 14.8389 16.4171 15.5938 15.5162C16.0938 14.9195 16.4375 14.2078 16.594 13.4452C16.6513 13.1343 16.6602 12.8255 16.6888 12.497C16.6973 12.1781 16.75 11.8619 16.8454 11.5575C17.0693 10.9087 17.5157 10.3601 18.1056 10.009C18.6955 9.65797 19.3906 9.52713 20.0678 9.63971C20.7449 9.75228 21.3603 10.101 21.8049 10.624C22.2494 11.147 22.4943 11.8106 22.4961 12.497C22.4937 15.279 21.3881 17.9465 19.4218 19.9145C17.4553 21.8827 14.7887 22.9909 12.0064 22.9961Z" fill="black"/>
</g>
<defs>
<clipPath id="clip0_1_671">
<rect width="24" height="24" fill="white" transform="translate(0 0.5)"/>
</clipPath>
</defs>
</svg>
