<svg width="159" height="65" viewBox="0 0 159 65" fill="none" xmlns="http://www.w3.org/2000/svg">
<g clip-path="url(#clip0_1_183)">
<g clip-path="url(#clip1_1_183)">
<path fill-rule="evenodd" clip-rule="evenodd" d="M60.2985 29.9452V39.7796H56.7092V29.9452H53.0828V26.8152H63.9249V29.9452H60.2985Z" fill="black"/>
<path fill-rule="evenodd" clip-rule="evenodd" d="M67.9006 32.3155C67.1422 32.3155 66.7168 32.8339 66.6058 33.7968H69.3812C69.2138 32.8154 68.8809 32.3155 67.9006 32.3155ZM72.3037 35.8715H66.6058C66.7168 36.9454 67.3447 37.4268 68.252 37.4268C69.1029 37.4268 69.8067 37.2417 70.7685 36.7417L72.0438 38.872C70.8425 39.5747 69.6023 39.983 68.0855 39.983C65.1621 39.983 63.5529 37.9083 63.5529 34.9262C63.5529 31.5748 65.4396 29.8519 67.9931 29.8519C70.6566 29.8519 72.3222 31.6119 72.3222 35.2225C72.3222 35.5012 72.3222 35.7048 72.3037 35.8715ZM78.4991 39.9827C75.6506 39.9827 73.948 38.1681 73.948 34.8899C73.948 31.9079 75.4656 29.8526 78.5731 29.8526C80.4052 29.8526 81.4595 30.7043 82.3104 32.0745L80.0168 33.815C79.5543 32.9633 79.239 32.5559 78.5185 32.5559C77.6668 32.5559 77.2413 33.4077 77.2413 34.9454C77.2413 36.4832 77.7037 37.2784 78.6101 37.2784C79.239 37.2784 79.6829 36.9266 80.2933 36.0193L82.4028 37.6673C81.2745 39.3346 80.2193 39.9827 78.4991 39.9827ZM89.8564 39.7793V34.2597C89.8564 33.0006 89.431 32.6673 88.7466 32.6673C88.0428 32.6673 87.6173 33.0006 87.6173 34.2226V39.7793H84.2879V27.6115L87.6173 26.2783V30.7037C88.2277 30.2408 88.9121 29.8519 90.0598 29.8519C92.1879 29.8519 93.2052 31.2777 93.2052 33.8338V39.7793H89.8564ZM101.177 39.9827C97.3283 39.9827 95.2743 37.1303 95.2743 33.2966C95.2743 29.1295 97.7167 26.6113 101.195 26.6113C104.377 26.6113 105.635 27.9815 106.523 30.4266L103.268 31.7042C102.804 30.5006 102.36 29.7405 101.177 29.7405C99.6783 29.7405 99.0309 31.2413 99.0309 33.2966C99.0309 35.2787 99.6589 36.8526 101.214 36.8526C102.342 36.8526 102.823 36.2415 103.526 35.0195L106.56 36.6304C105.691 38.3348 104.247 39.9827 101.177 39.9827ZM114.752 33.7227C114.327 33.2598 113.847 32.908 113.198 32.908C112.383 32.908 111.884 33.2968 111.884 34.4819V39.7793H108.555V30.0556H111.884V30.7592C112.458 30.2037 113.106 29.8519 113.958 29.8519C114.659 29.8519 115.141 30.0186 115.53 30.2593L114.752 33.7227ZM122.669 39.7793V39.1303C122.076 39.5932 121.374 39.983 120.246 39.983C118.118 39.983 117.101 38.5572 117.101 36.0002V30.0556H120.45V35.5752C120.45 36.8334 120.875 37.1676 121.559 37.1676C122.244 37.1676 122.669 36.8334 122.669 35.6113V30.0556H126.018V39.7793H122.669ZM133.989 39.7793V34.2597C133.989 33.0006 133.564 32.6673 132.879 32.6673C132.176 32.6673 131.75 33.0006 131.75 34.2226V39.7793H128.421V30.0556H131.75V30.7037C132.361 30.2408 133.045 29.8519 134.193 29.8519C136.321 29.8519 137.338 31.2777 137.338 33.8338V39.7793H133.989ZM143.828 39.9827C140.98 39.9827 139.277 38.1681 139.277 34.8899C139.277 31.9079 140.795 29.8526 143.902 29.8526C145.734 29.8526 146.789 30.7043 147.64 32.0745L145.346 33.815C144.884 32.9633 144.568 32.5559 143.848 32.5559C142.996 32.5559 142.571 33.4077 142.571 34.9454C142.571 36.4832 143.033 37.2784 143.939 37.2784C144.568 37.2784 145.012 36.9266 145.623 36.0193L147.732 37.6673C146.604 39.3346 145.549 39.9827 143.828 39.9827ZM155.186 39.7793V34.2597C155.186 33.0006 154.76 32.6673 154.076 32.6673C153.372 32.6673 152.947 33.0006 152.947 34.2226V39.7793H149.617V27.6115L152.947 26.2783V30.7037C153.557 30.2408 154.241 29.8519 155.389 29.8519C157.517 29.8519 158.534 31.2777 158.534 33.8338V39.7793H155.186Z" fill="black"/>
<path fill-rule="evenodd" clip-rule="evenodd" d="M0.831299 22.1714V29.3654H8.27316V43.7528H15.715V29.3654H23.1569V22.1714H0.831299Z" fill="black"/>
<path fill-rule="evenodd" clip-rule="evenodd" d="M30.5987 36.5588V29.3655H23.1569V43.7528H45.4825V36.5588H30.5987Z" fill="black"/>
<path fill-rule="evenodd" clip-rule="evenodd" d="M30.5987 29.3654H45.4825V22.1714H30.5987V29.3654Z" fill="black"/>
</g>
</g>
<defs>
<clipPath id="clip0_1_183">
<rect width="157.77" height="64" fill="white" transform="translate(0.830017 0.590088)"/>
</clipPath>
<clipPath id="clip1_1_183">
<rect width="157.767" height="64" fill="white" transform="translate(0.831299 0.590088)"/>
</clipPath>
</defs>
</svg>
