<svg width="50" height="51" viewBox="0 0 50 51" fill="none" xmlns="http://www.w3.org/2000/svg">
<g clip-path="url(#clip0_1_1306)">
<path d="M5.35714 4.82429C3.3847 4.82429 1.78571 6.42327 1.78571 8.39572V35.1814C1.78571 37.1539 3.3847 38.7529 5.35714 38.7529H44.6429C46.6153 38.7529 48.2143 37.1539 48.2143 35.1814V8.39572C48.2143 6.42327 46.6153 4.82429 44.6429 4.82429H5.35714ZM31.7738 40.5386L32.4111 42.3243L34.4186 44.76C35.0459 45.521 34.9375 46.6464 34.1764 47.2737C33.8566 47.5373 33.4551 47.6814 33.0407 47.6814H17.8521C16.8659 47.6814 16.0664 46.8819 16.0664 45.8957C16.0664 45.4813 16.2106 45.0798 16.4742 44.76L18.4817 42.3243L19.119 40.5386H5.35714C2.39847 40.5386 0 38.1401 0 35.1814L0 8.39572C0 5.43705 2.39847 3.03857 5.35714 3.03857H44.6429C47.6015 3.03857 50 5.43705 50 8.39572V35.1814C50 38.1401 47.6015 40.5386 44.6429 40.5386H31.7738ZM21.015 40.5386L20.0585 43.2189L17.8521 45.8957H33.0407L30.8344 43.2189L29.8778 40.5386H21.015Z" fill="white"/>
</g>
<defs>
<clipPath id="clip0_1_1306">
<rect width="50" height="50" fill="white" transform="translate(0 0.360107)"/>
</clipPath>
</defs>
</svg>
