<svg width="16" height="17" viewBox="0 0 16 17" fill="none" xmlns="http://www.w3.org/2000/svg">
<g id="SVG">
<path id="Vector" fill-rule="evenodd" clip-rule="evenodd" d="M9.18765 15.5167C11.0387 15.1976 12.7023 14.1943 13.8482 12.706C14.9941 11.2176 15.5387 9.35286 15.374 7.4817C15.2092 5.61054 14.3471 3.86967 12.9587 2.60446C11.5703 1.33926 9.75708 0.642157 7.8787 0.651459C6.00033 0.660762 4.19407 1.37579 2.81827 2.65468C1.44248 3.93358 0.597666 5.6829 0.451444 7.5556C0.305221 9.4283 0.86827 11.2876 2.02889 12.7645C3.18951 14.2414 4.86289 15.2282 6.71706 15.5289V10.2301H4.84506V8.13219H6.71706V6.48514C6.71706 4.61314 7.91518 3.56467 9.63659 3.56467C10.1608 3.56467 10.7604 3.63996 11.2836 3.71525V5.62396H10.3105C9.41259 5.62396 9.18765 6.0729 9.18765 6.67243V8.13219H11.1716L10.8347 10.2282H9.18765V15.5167Z" fill="black"/>
</g>
</svg>
