<svg width="16" height="17" viewBox="0 0 16 17" fill="none" xmlns="http://www.w3.org/2000/svg">
<g id="SVG">
<path id="Vector" d="M8.00002 0.0898438C5.82733 0.0898438 5.5549 0.0990531 4.70161 0.137986C3.8501 0.176823 3.26856 0.312073 2.7597 0.509849C2.23363 0.714263 1.78748 0.987809 1.34271 1.43255C0.897966 1.87733 0.624419 2.32347 0.420006 2.84954C0.222229 3.3584 0.0869797 3.93995 0.0481423 4.79145C0.00920933 5.64474 0 5.91717 0 8.08986C0 10.2625 0.00920933 10.5349 0.0481423 11.3882C0.0869797 12.2397 0.222229 12.8213 0.420006 13.3301C0.624419 13.8562 0.897966 14.3024 1.34271 14.7471C1.78748 15.1919 2.23363 15.4654 2.7597 15.6699C3.26856 15.8676 3.8501 16.0029 4.70161 16.0417C5.5549 16.0806 5.82733 16.0898 8.00002 16.0898C10.1727 16.0898 10.4451 16.0806 11.2984 16.0417C12.1499 16.0029 12.7314 15.8676 13.2403 15.6699C13.7664 15.4654 14.2125 15.1919 14.6573 14.7471C15.102 14.3024 15.3756 13.8562 15.58 13.3301C15.7778 12.8213 15.913 12.2397 15.9519 11.3882C15.9908 10.5349 16 10.2625 16 8.08986C16 5.91717 15.9908 5.64474 15.9519 4.79145C15.913 3.93995 15.7778 3.3584 15.58 2.84954C15.3756 2.32347 15.102 1.87733 14.6573 1.43255C14.2125 0.987809 13.7664 0.714263 13.2403 0.509849C12.7314 0.312073 12.1499 0.176823 11.2984 0.137986C10.4451 0.0990531 10.1727 0.0898438 8.00002 0.0898438ZM8.00002 1.53128C10.1361 1.53128 10.3891 1.53944 11.2327 1.57793C12.0127 1.6135 12.4363 1.74383 12.7182 1.85338C13.0916 1.99851 13.3581 2.17187 13.638 2.45183C13.918 2.73176 14.0913 2.99825 14.2365 3.37167C14.346 3.65357 14.4763 4.07717 14.5119 4.85716C14.5504 5.70073 14.5586 5.95376 14.5586 8.08986C14.5586 10.2259 14.5504 10.479 14.5119 11.3225C14.4763 12.1025 14.346 12.5261 14.2365 12.808C14.0913 13.1814 13.918 13.4479 13.638 13.7279C13.3581 14.0078 13.0916 14.1812 12.7182 14.3263C12.4363 14.4359 12.0127 14.5662 11.2327 14.6018C10.3892 14.6402 10.1362 14.6484 8.00002 14.6484C5.86375 14.6484 5.61079 14.6402 4.76731 14.6018C3.98732 14.5662 3.56373 14.4359 3.28183 14.3263C2.90841 14.1812 2.64191 14.0078 2.36198 13.7279C2.08205 13.4479 1.90867 13.1814 1.76354 12.808C1.65398 12.5261 1.52366 12.1025 1.48809 11.3225C1.4496 10.479 1.44144 10.2259 1.44144 8.08986C1.44144 5.95376 1.4496 5.70073 1.48809 4.85716C1.52366 4.07717 1.65398 3.65357 1.76354 3.37167C1.90867 2.99825 2.08202 2.73176 2.36198 2.45183C2.64191 2.17187 2.90841 1.99851 3.28183 1.85338C3.56373 1.74383 3.98732 1.6135 4.76731 1.57793C5.61088 1.53944 5.86391 1.53128 8.00002 1.53128ZM8.00002 3.98174C5.73114 3.98174 3.89189 5.82099 3.89189 8.08986C3.89189 10.3587 5.73114 12.198 8.00002 12.198C10.2689 12.198 12.1081 10.3587 12.1081 8.08986C12.1081 5.82099 10.2689 3.98174 8.00002 3.98174ZM8.00002 10.7565C6.52723 10.7565 5.33333 9.56261 5.33333 8.08986C5.33333 6.61708 6.52723 5.42318 8.00002 5.42318C9.47277 5.42318 10.6667 6.61708 10.6667 8.08986C10.6667 9.56261 9.47277 10.7565 8.00002 10.7565ZM13.2304 3.81943C13.2304 4.34963 12.8006 4.77942 12.2704 4.77942C11.7402 4.77942 11.3104 4.34963 11.3104 3.81943C11.3104 3.28923 11.7402 2.85942 12.2704 2.85942C12.8006 2.85942 13.2304 3.28923 13.2304 3.81943Z" fill="black"/>
</g>
</svg>
