<svg width="16" height="17" viewBox="0 0 16 17" fill="none" xmlns="http://www.w3.org/2000/svg">
<g id="SVG">
<path id="Vector" fill-rule="evenodd" clip-rule="evenodd" d="M6.348 10.1795L6.34733 5.65218L10.6707 7.92352L6.348 10.1795ZM15.84 4.86752C15.84 4.86752 15.6837 3.75718 15.204 3.26818C14.5953 2.62618 13.9137 2.62318 13.601 2.58585C11.362 2.42285 8.00367 2.42285 8.00367 2.42285H7.99633C7.99633 2.42285 4.638 2.42285 2.399 2.58585C2.086 2.62318 1.40467 2.62618 0.795667 3.26818C0.316 3.75718 0.16 4.86752 0.16 4.86752C0.16 4.86752 0 6.17185 0 7.47552V8.69818C0 10.0022 0.16 11.3059 0.16 11.3059C0.16 11.3059 0.316 12.4162 0.795667 12.9052C1.40467 13.5472 2.204 13.5272 2.56 13.5942C3.84 13.7179 8 13.7562 8 13.7562C8 13.7562 11.362 13.7512 13.601 13.5879C13.9137 13.5502 14.5953 13.5472 15.204 12.9052C15.6837 12.4162 15.84 11.3059 15.84 11.3059C15.84 11.3059 16 10.0022 16 8.69818V7.47552C16 6.17185 15.84 4.86752 15.84 4.86752Z" fill="black"/>
</g>
</svg>
