<svg width="21" height="21" viewBox="0 0 21 21" fill="none" xmlns="http://www.w3.org/2000/svg">
<g id="info">
<path id="Vector" d="M10.5 16.9102C13.8137 16.9102 16.5 14.2239 16.5 10.9102C16.5 7.59645 13.8137 4.91016 10.5 4.91016C7.18629 4.91016 4.5 7.59645 4.5 10.9102C4.5 14.2239 7.18629 16.9102 10.5 16.9102ZM10.5 18.9102C6.08172 18.9102 2.5 15.3284 2.5 10.9102C2.5 6.49188 6.08172 2.91016 10.5 2.91016C14.9183 2.91016 18.5 6.49188 18.5 10.9102C18.5 15.3284 14.9183 18.9102 10.5 18.9102ZM9.5 9.91016V14.9102H11.5V9.91016H9.5ZM9.5 6.91016V8.91016H11.5V6.91016H9.5Z" fill="black" fill-opacity="0.32"/>
</g>
</svg>
