<svg width="21" height="21" viewBox="0 0 21 21" fill="none" xmlns="http://www.w3.org/2000/svg">
<g id="rating">
<path id="Vector" d="M7.47382 15.2937L10.4999 13.6085L13.5261 15.2937L12.8585 11.8949L15.3963 9.53763L11.9576 9.12222L10.4999 5.98021L9.04226 9.12222L5.60358 9.53763L8.14135 11.8949L7.47382 15.2937ZM10.4999 15.8977L7.12863 17.7751C6.50136 18.1244 5.70969 17.899 5.36039 17.2718C5.21084 17.0032 5.16129 16.6904 5.22053 16.3888L5.96421 12.6023L3.13694 9.97613C2.6109 9.4875 2.58057 8.66495 3.0692 8.1389C3.27839 7.91369 3.56061 7.76989 3.86577 7.73303L7.69671 7.27023L9.32068 3.76981C9.62283 3.11852 10.3958 2.83549 11.0471 3.13764C11.3259 3.267 11.5499 3.49098 11.6792 3.76981L13.3032 7.27023L17.1341 7.73303C17.8469 7.81914 18.3549 8.46677 18.2688 9.17956C18.232 9.48472 18.0882 9.76694 17.8629 9.97613L15.0357 12.6023L15.7794 16.3888C15.9177 17.0933 15.4588 17.7766 14.7543 17.9149C14.4527 17.9742 14.1398 17.9246 13.8713 17.7751L10.4999 15.8977Z" fill="black" fill-opacity="0.32"/>
</g>
</svg>
