<svg width="21" height="21" viewBox="0 0 21 21" fill="none" xmlns="http://www.w3.org/2000/svg">
<g id="system">
<path id="Vector" d="M3.5 6.91016V14.9102H17.5V6.91016H3.5ZM3.5 16.9102C2.39543 16.9102 1.5 16.0147 1.5 14.9102V6.91016C1.5 5.80559 2.39543 4.91016 3.5 4.91016V2.91016H5.5V4.91016H7.5V2.91016H9.5V4.91016H11.5V2.91016H13.5V4.91016H15.5V2.91016H17.5V4.91016C18.6046 4.91016 19.5 5.80559 19.5 6.91016V14.9102C19.5 16.0147 18.6046 16.9102 17.5 16.9102V18.9102H15.5V16.9102H13.5V18.9102H11.5V16.9102H9.5V18.9102H7.5V16.9102H5.5V18.9102H3.5V16.9102Z" fill="black" fill-opacity="0.32"/>
</g>
</svg>
